<?xml version="1.0" encoding="utf-8"?>
<!-- Generator: Adobe Illustrator 27.3.1, SVG Export Plug-In . SVG Version: 6.00 Build 0)  -->
<svg version="1.1" id="Layer_1" xmlns="http://www.w3.org/2000/svg" xmlns:xlink="http://www.w3.org/1999/xlink" x="0px" y="0px"
	 viewBox="0 0 50.88 154.78" style="enable-background:new 0 0 50.88 154.78;" xml:space="preserve">
<style type="text/css">
	.st0{fill:url(#SVGID_1_);}
	.st1{fill:url(#SVGID_00000067214793131255366240000010480046863577662363_);}
	.st2{fill:url(#SVGID_00000032614507276270632950000010390765339205145995_);}
</style>
<g>
	<linearGradient id="SVGID_1_" gradientUnits="userSpaceOnUse" x1="12.1164" y1="64.537" x2="30.0552" y2="64.537">
		<stop  offset="0.0354" style="stop-color:#4681A0"/>
		<stop  offset="0.2963" style="stop-color:#3A7292"/>
		<stop  offset="0.7997" style="stop-color:#1C496E"/>
		<stop  offset="0.9848" style="stop-color:#0F395F"/>
	</linearGradient>
	<path class="st0" d="M19.65,98.23c-0.43-0.1-0.88-0.15-1.34-0.15c-3.41,0-6.18,2.74-6.18,6.1c0,3.37,2.78,6.1,6.18,6.1
		c3.41,0,6.18-2.74,6.18-6.1c0-1.49-0.55-2.87-1.45-3.93l7.02-9.73V18.78H26.1v70.5L19.65,98.23z M18.3,107.69
		c-1.96,0-3.55-1.57-3.55-3.5s1.59-3.5,3.55-3.5c1.96,0,3.55,1.57,3.55,3.5S20.26,107.69,18.3,107.69z"/>
	
		<linearGradient id="SVGID_00000167389820111127195320000005925743908361075089_" gradientUnits="userSpaceOnUse" x1="0" y1="44.7973" x2="20.473" y2="44.7973">
		<stop  offset="0.0354" style="stop-color:#4681A0"/>
		<stop  offset="0.2963" style="stop-color:#3A7292"/>
		<stop  offset="0.7997" style="stop-color:#1C496E"/>
		<stop  offset="0.9848" style="stop-color:#0F395F"/>
	</linearGradient>
	<path style="fill:url(#SVGID_00000167389820111127195320000005925743908361075089_);" d="M8.78,80.72
		c-0.43,0.83-0.67,1.77-0.67,2.77c0,3.37,2.78,6.1,6.18,6.1c3.41,0,6.19-2.74,6.19-6.1c0-3.37-2.78-6.1-6.19-6.1
		c-0.96,0-1.87,0.22-2.69,0.61l-7.65-8.21V0C2.6,0.36,1.28,0.81,0,1.32V71.3L8.78,80.72z M14.29,79.99c1.96,0,3.55,1.57,3.55,3.5
		s-1.59,3.5-3.55,3.5c-1.96,0-3.55-1.57-3.55-3.5S12.33,79.99,14.29,79.99z"/>
	
		<linearGradient id="SVGID_00000014631354309166973060000006211269010984280989_" gradientUnits="userSpaceOnUse" x1="30.3294" y1="122.8099" x2="50.8772" y2="122.8099">
		<stop  offset="0.0354" style="stop-color:#4681A0"/>
		<stop  offset="0.2963" style="stop-color:#3A7292"/>
		<stop  offset="0.7997" style="stop-color:#1C496E"/>
		<stop  offset="0.9848" style="stop-color:#0F395F"/>
	</linearGradient>
	<path style="fill:url(#SVGID_00000014631354309166973060000006211269010984280989_);" d="M42.21,102.53
		c0.76,0.33,1.6,0.51,2.48,0.51c3.41,0,6.18-2.74,6.18-6.1c0-3.37-2.77-6.1-6.18-6.1c-3.41,0-6.18,2.74-6.18,6.1
		c0,1.07,0.28,2.08,0.78,2.96l-8.96,10.32v44.56h1.85c0.71,0,1.41-0.03,2.11-0.07v-43.05L42.21,102.53z M44.69,93.44
		c1.96,0,3.55,1.57,3.55,3.5s-1.59,3.5-3.55,3.5c-1.96,0-3.55-1.57-3.55-3.5S42.74,93.44,44.69,93.44z"/>
</g>
</svg>
