<svg xmlns="http://www.w3.org/2000/svg" width="497.737" height="667.381" viewBox="0 0 497.737 667.381">
  <g id="Artwork_197" data-name="Artwork 197" transform="translate(85.848 329.11) rotate(-3)">
    <g id="Group_11624" data-name="Group 11624" transform="translate(-99.758 -310.518)">
      <path id="Path_16771" data-name="Path 16771" d="M35.194,371.36a28.5,28.5,0,1,0,22.629,27.855,28.2,28.2,0,0,0-6.792-18.357L83.856,335.4V0H65.373V329.566Zm-6.283,44.23a16.379,16.379,0,1,1,16.594-16.375A16.5,16.5,0,0,1,28.912,415.59Z" transform="translate(432.273 99.823) rotate(50)" fill="#fff"/>
      <path id="Path_16772" data-name="Path 16772" d="M41.019,377.343a28.1,28.1,0,0,0-3.141,12.93,28.914,28.914,0,1,0,28.907-28.538,29.1,29.1,0,0,0-12.56,2.833l-35.75-38.4V0A164.931,164.931,0,0,0,0,6.166V333.282Zm25.766-3.45a16.378,16.378,0,1,1-16.59,16.375A16.5,16.5,0,0,1,66.784,373.894Z" transform="translate(463.128 0) rotate(50)" fill="#fff"/>
      <path id="Path_16773" data-name="Path 16773" d="M55.542,54.668A28.962,28.962,0,0,0,96.051,28.533a28.912,28.912,0,0,0-57.819,0,28.105,28.105,0,0,0,3.637,13.846L0,90.6V298.915H8.624c3.31,0,6.591-.126,9.849-.318V97.342Zm11.6-42.51A16.378,16.378,0,1,1,50.55,28.533,16.5,16.5,0,0,1,67.14,12.158Z" transform="translate(228.982 381.543) rotate(50)" fill="#fff"/>
    </g>
  </g>
</svg>
