<?xml version="1.0" encoding="UTF-8"?><svg id="Layer_1" xmlns="http://www.w3.org/2000/svg" viewBox="0 0 392.02 392.03"><defs><style>.cls-1{fill:#fff;}</style></defs><path class="cls-1" d="m392.02,184.51v22.97c-.22,1.1-.57,2.2-.65,3.31-1.95,27.34-8.99,53.35-22.41,77.21-36.11,64.19-91.16,99.15-164.73,103.67-35.21,2.17-68.91-5.38-99.78-22.58C39.94,333.16,4.95,277.96.36,204.25c-2.2-35.34,5.58-69.07,22.68-100.15C53.44,48.82,99.82,15.02,161.88,3.09,169.36,1.66,176.99,1.01,184.55,0c7.66,0,15.31,0,22.97,0,.98.22,1.96.56,2.95.63,27.61,1.86,53.77,9.16,77.91,22.58,55.1,30.62,88.88,76.95,100.59,139.05,1.39,7.35,2.05,14.83,3.05,22.25ZM196.21,24.26c-94.53-.28-171.34,76.28-171.91,171.36-.57,94.49,76.51,171.83,171.55,172.1,94.53.28,171.34-76.29,171.91-171.36.57-94.49-76.51-171.82-171.55-172.1Z"/><path class="cls-1" d="m299.38,81.79c-21.23.71-32.75,21.62-23.9,41.72,3.12,7.08,7.19,13.76,11.14,20.44,8.8,14.88,15.18,30.58,13.32,48.15-1.06,9.93-3.61,19.79-6.36,29.43-6.16,21.55-12.88,42.94-19.38,64.39-.25.83-.59,1.64-1.19,3.28-18.68-55.57-37.11-110.38-55.66-165.57,4.84-.4,9.24-.73,13.64-1.15,1.77-.17,3.58-.34,5.27-.84,3.3-.97,4.66-3.41,4.3-6.74-.37-3.42-2.47-5.42-5.84-5.37-5.73.09-11.47.46-17.19.86-20.03,1.4-40.03.89-60.02-.73-2.03-.16-4.09-.27-6.12-.16-3.42.2-5.72,2.52-5.85,5.9-.13,3.33,1.28,5.83,4.75,6.35,4.66.69,9.36,1.19,14.06,1.47,2.26.14,3.34.96,4.1,3.07,7.35,20.36,14.82,40.69,22.17,61.05.43,1.2.53,2.78.14,3.97-10.75,32.53-21.59,65.04-32.43,97.54-.07.22-.31.38-.95,1.12-18.65-55.48-37.19-110.59-55.91-166.3,4.53-.4,8.64-.75,12.75-1.15,1.9-.19,3.83-.32,5.67-.77,3.38-.83,5.25-3.54,4.9-6.73-.37-3.32-2.64-5.62-6.2-5.51-6.88.2-13.75.94-20.63,1.08-10.02.2-20.05.05-30.02.05,49.42-78.74,163.53-92.38,231.47-28.87Z"/><path class="cls-1" d="m247.02,341.75c-31.27,10.57-62.53,11.48-94.6,2.37,15.37-44.68,30.69-89.2,46.31-134.6,16.24,44.48,32.17,88.08,48.29,132.23Z"/><path class="cls-1" d="m128.46,334.55c-73.2-34.84-107.71-124.36-73.42-201.16,24.56,67.29,48.9,133.97,73.42,201.16Z"/><path class="cls-1" d="m273.83,329.16c5.5-15.91,10.71-31.06,15.96-46.2,12.01-34.64,24.21-69.22,35.97-103.95,6.07-17.92,8.13-36.46,5.98-55.65,36.34,62.1,21.04,159.5-57.91,205.8Z"/></svg>