<?xml version="1.0" encoding="UTF-8"?><svg id="Layer_1" xmlns="http://www.w3.org/2000/svg" viewBox="0 0 293.52 382.66"><defs><style>.cls-1{fill:#fff;}</style></defs><path class="cls-1" d="m146.7,0c9.81,30.12,30.95,50.75,51.28,72.01,17.41,18.2,35.17,36.11,51.72,55.07,18.03,20.66,31.47,44.16,38.74,70.93,21.72,79.96-28.43,163.08-109.39,181.08-80.1,17.81-159.08-32.72-175.8-112.85-8.61-41.28.21-79.4,22.56-114.73,13.15-20.79,29.56-38.88,46.68-56.37,12.57-12.84,25.37-25.44,37.69-38.52,15.36-16.31,29.38-33.62,36.52-56.62Zm-.25,84.12c-7.43,7.44-14.87,14.82-22.22,22.27-3.59,3.64-7.29,7.21-10.5,11.17-4.77,5.9-5.52,12.45-1.48,19.11,1.41,2.33,3.17,4.49,5.04,6.48,20.38,21.76,41.03,43.28,61.18,65.25,17.52,19.09,36.28,37.13,51.13,58.58,1.16,1.67,3.81,2.92,5.92,3.19,3.77.5,6.22-2.34,7.17-5.46,2.28-7.46,4.93-14.99,5.71-22.68,2.38-23.3-4.62-44.34-17.45-63.58-14.94-22.4-32.98-42.27-51.52-61.65-10.59-11.07-21.76-21.6-32.97-32.68Zm.07,135.08c-13.54,15.45-27.02,30.17-39.69,45.55-8.78,10.65-11.75,23.57-10.04,37.26,2.6,20.84,18.98,38.34,39.32,42.5,21.31,4.36,42.68-4.84,53.77-23.15,11.09-18.3,9.59-41.67-4.1-57.99-7.77-9.26-16.02-18.11-24.06-27.14-4.88-5.48-9.77-10.94-15.2-17.02Zm-64.94-67.66c-4.99,5.86-9.85,11.06-14.14,16.69-13.54,17.8-22.15,37.47-21.92,60.31.12,12.32,2.7,24.01,9.31,34.54,1.49,2.38,3.54,4.52,5.72,6.31,1.96,1.61,3.76.83,5.24-1.4,4.88-7.34,9.29-15.13,15.07-21.71,13.08-14.88,26.86-29.15,40.38-43.66,3.12-3.35,3.21-4.21.24-7.51-3.67-4.08-7.39-8.11-11.09-12.16-9.43-10.29-18.86-20.57-28.8-31.42Z"/></svg>