<?xml version="1.0" encoding="UTF-8"?><svg id="Layer_1" xmlns="http://www.w3.org/2000/svg" viewBox="0 0 424.39 525.24"><defs><style>.cls-1{fill:#fff;}</style></defs><g id="UCzUA6"><path class="cls-1" d="m79.83,341.94c-26.03-26.04-52.74-52.76-79.83-79.85.74-.79,1.93-2.11,3.19-3.36C88.15,173.74,173.12,88.77,258.03,3.73,260.57,1.18,263.05,0,266.72,0c50.16.12,100.33.08,150.49.09,1.59,0,3.18.16,4.37.23-114.04,113.99-228.05,227.97-341.76,341.63Z"/><path class="cls-1" d="m120.16,383.16c10.74-10.44,21.5-20.61,31.95-31.1,35.39-35.56,70.68-71.2,105.92-106.91,2.55-2.58,5.04-3.64,8.68-3.63,50.33.12,100.65.08,150.98.08h5.58c-47.43,47.04-94.41,93.63-142.23,141.06,48.36,47.98,95.34,94.61,143.36,142.26-3.33.17-4.94.32-6.55.32-50.49.01-100.99.05-151.48-.11-2.51,0-5.7-1.04-7.42-2.75-45.34-45.17-90.53-90.49-135.74-135.79-.8-.8-1.51-1.69-3.04-3.42Z"/></g></svg>