<?xml version="1.0" encoding="UTF-8"?><svg id="Layer_1" xmlns="http://www.w3.org/2000/svg" viewBox="0 0 432.92 432.96"><defs><style>.cls-1{fill:#fff;}</style></defs><path class="cls-1" d="m0,192.85c1.94-2.69,4.47-3.82,7.88-3.8,15.32.12,30.63.05,45.95.07,1.12,0,2.63-.24,3.28.36,1.71,1.59,4.03,3.49,4.22,5.45.17,1.73-1.94,4.01-3.57,5.45-.95.84-2.94.68-4.46.69-15.04.04-30.07-.03-45.11.07-3.54.02-6.25-1.09-8.18-4.06v-4.23Z"/><path class="cls-1" d="m0,235.97c1.91-2.99,4.63-4.08,8.17-4.06,15.03.1,30.07.04,45.11.05.98,0,1.98,0,2.94.15,3.36.57,5.42,2.63,5.32,6.01-.1,3.35-2.14,5.47-5.61,5.69-2.8.18-5.62.12-8.43.12-13.07,0-26.14-.07-39.2.05-3.49.03-6.27-.92-8.3-3.8v-4.23Z"/><path class="cls-1" d="m192.8,432.96c-2.67-1.95-3.82-4.47-3.79-7.88.13-15.31.05-30.63.06-45.94,0-.98.03-1.98.21-2.94.57-3.06,2.74-5.1,5.53-4.65,2.08.34,4.1,2.35,5.65,4.05.76.83.53,2.68.53,4.07.03,15.03-.04,30.07.06,45.1.03,3.54-1.07,6.25-4.04,8.18h-4.23Z"/><path class="cls-1" d="m235.93,432.96c-2.98-1.92-4.06-4.64-4.04-8.18.11-15.03.04-30.07.05-45.1,0-.98-.03-1.98.13-2.94.57-3.37,2.63-5.41,6.02-5.32,3.36.1,5.47,2.13,5.68,5.61.18,2.94.11,5.9.11,8.85,0,12.93-.07,25.85.05,38.78.03,3.5-.92,6.27-3.79,8.3h-4.23Z"/><path class="cls-1" d="m0,149.73c2.16-2.7,4.87-3.64,8.4-3.61,15.18.17,30.36.06,45.54.08,4.86,0,7.66,2.19,7.68,5.84.02,3.67-2.84,6.04-7.58,6.05-15.46.04-30.92-.04-46.38.06-3.48.02-5.9-1.35-7.65-4.2v-4.23Z"/><path class="cls-1" d="m0,279.09c1.68-2.65,3.85-4.18,7.22-4.16,15.74.1,31.48,0,47.22.06,4.74.02,7.85,3.04,7.06,6.83-.64,3.07-2.59,4.98-5.89,4.98-16.58.02-33.17.13-49.75-.15-1.97-.03-3.91-2.18-5.87-3.35,0-1.41,0-2.82,0-4.23Z"/><path class="cls-1" d="m149.67,432.96c-2.68-2.16-3.65-4.87-3.61-8.39.17-15.18.06-30.35.08-45.53,0-4.87,2.18-7.65,5.84-7.68,3.68-.02,6.03,2.83,6.04,7.58.04,15.46-.05,30.92.06,46.38.02,3.49-1.34,5.89-4.19,7.65h-4.23Z"/><path class="cls-1" d="m279.05,432.96c-2.64-1.69-4.2-3.86-4.18-7.22.09-15.74,0-31.48.06-47.22.02-4.75,3.06-7.85,6.85-7.06,3.08.64,4.98,2.58,4.99,5.89.02,16.58.12,33.17-.15,49.75-.03,1.97-2.18,3.91-3.35,5.87h-4.23Z"/><path class="cls-1" d="m216.3,351.82c-32.12,0-64.24.01-96.36,0-23.78-.01-38.67-14.98-38.67-38.85,0-64.65-.02-129.31.01-193.96,0-18.17,10.64-32.27,27.49-36.33,3.38-.82,6.97-1.09,10.46-1.1,64.81-.06,129.61-.06,194.42-.04,22.9,0,38.03,15.24,38.04,38.24.02,64.65.02,129.31,0,193.96,0,22.94-15.18,38.06-38.17,38.08-32.4.03-64.81,0-97.21,0Zm-.04-11.89c32.41,0,64.82,0,97.24,0,16.42,0,26.28-9.86,26.28-26.33.02-64.67.02-129.34,0-194.01,0-16.21-9.81-26.1-26.06-26.12-64.82-.05-129.65-.05-194.47,0-16.26.01-26.06,9.9-26.06,26.11-.02,64.67-.02,129.34,0,194.01,0,16.49,9.83,26.33,26.27,26.33,32.27.01,64.54,0,96.81,0Z"/><path class="cls-1" d="m243.89,30.83c0,7.75.04,15.49-.02,23.24-.04,4.88-2.3,7.66-5.97,7.62-3.68-.05-5.93-2.85-5.94-7.72-.04-15.49-.07-30.99.01-46.48.03-5.81,4.49-9.29,8.55-6.52,1.73,1.18,3.12,4.04,3.22,6.21.38,7.87.15,15.77.15,23.66Z"/><path class="cls-1" d="m189.07,30.95c0-7.75-.04-15.49.02-23.24.04-4.95,2.21-7.63,5.96-7.59,3.71.03,5.95,2.8,5.97,7.67.04,15.49.07,30.99-.01,46.48-.03,5.8-4.51,9.31-8.55,6.55-1.73-1.18-3.12-4.05-3.22-6.21-.38-7.87-.15-15.77-.16-23.66Z"/><path class="cls-1" d="m402.09,189.11c7.75,0,15.5-.05,23.25.02,4.94.04,7.63,2.24,7.59,5.98-.04,3.7-2.81,5.95-7.69,5.97-15.5.05-31,.02-46.49.01-2.99,0-5.94-.65-6.75-3.87-.45-1.79-.2-4.52.92-5.74,1.3-1.41,3.88-2.2,5.94-2.26,7.74-.25,15.49-.1,23.24-.1Z"/><path class="cls-1" d="m402.51,243.94c-7.89,0-15.78.05-23.67-.02-4.83-.04-7.62-2.39-7.5-6.09.11-3.56,2.81-5.83,7.39-5.85,15.64-.06,31.28-.07,46.92,0,4.58.02,7.23,2.34,7.27,5.95.04,3.64-2.56,5.92-7.16,5.98-7.75.09-15.5.02-23.25.03Z"/><path class="cls-1" d="m286.81,31.01c0,7.89.04,15.78-.02,23.67-.03,4.22-2.3,6.89-5.7,7.01-3.56.12-6.14-2.68-6.16-7.05-.06-15.78-.05-31.56,0-47.34.01-4.46,2.41-7.19,6-7.18,3.63.01,5.83,2.65,5.86,7.23.05,7.89.01,15.78.01,23.67Z"/><path class="cls-1" d="m402.33,146.2c7.75,0,15.5-.03,23.25.01,4.62.03,7.26,2.16,7.33,5.76.07,3.7-2.77,6.12-7.51,6.13-15.5.04-31,.04-46.5,0-4.75-.01-7.62-2.41-7.57-6.09.05-3.66,2.83-5.78,7.75-5.8,7.75-.03,15.5,0,23.25,0Z"/><path class="cls-1" d="m158.03,31.07c0,8.03.29,16.08-.19,24.08-.13,2.14-2.21,4.97-4.15,5.93-1.46.72-4.38-.68-6.19-1.85-.96-.62-1.29-2.76-1.29-4.21-.09-16.06-.09-32.12-.03-48.18.01-4.19,2.42-6.75,5.94-6.7,3.47.05,5.86,2.67,5.9,6.85.09,8.03.03,16.06.02,24.09Z"/><path class="cls-1" d="m401.98,286.84c-7.89,0-15.78.04-23.67-.02-4.21-.03-6.88-2.31-6.97-5.72-.1-3.57,2.68-6.1,7.08-6.11,15.78-.05,31.56-.05,47.34,0,4.45.01,7.19,2.42,7.16,6.01-.03,3.62-2.67,5.8-7.26,5.83-7.89.05-15.78.01-23.67.01Z"/><path class="cls-1" d="m216.85,111.41c25.78,0,51.56-.05,77.34.02,13.6.04,23.48,7.09,26.62,19.02.78,2.95,1.01,6.12,1.02,9.19.06,51.41.07,102.82.03,154.23-.01,17.49-10.75,28.21-28.2,28.22-51.42.03-102.84.02-154.26,0-17.47,0-28.28-10.71-28.29-28.12-.04-51.55-.05-103.1,0-154.65.02-17.31,10.6-27.84,27.98-27.89,25.92-.07,51.84-.02,77.76-.02Zm93.03,105.26c0-25.5.01-51,0-76.5,0-11.79-4.96-16.8-16.6-16.8-51.15,0-102.31,0-153.46,0-11.77,0-16.74,4.92-16.74,16.64-.01,51.14-.01,102.29,0,153.43,0,11.57,5.19,16.71,16.79,16.71,51.01,0,102.02,0,153.04,0,11.86,0,16.96-5.09,16.97-16.98.01-25.5,0-51,0-76.5Z"/><path class="cls-1" d="m203.32,170.34c4.27.2,6.98,1.69,8.27,6.01,6.62,22.24,13.5,44.4,20.26,66.6,1.31,4.29.38,6.16-3.55,7.39-4.14,1.3-6.18.17-7.49-4.15-1.31-4.3-1.4-10.19-4.3-12.42-2.89-2.22-8.61-.9-13.09-.87-4.45.03-10.03-1.14-13.02,1.06-2.82,2.08-2.92,7.86-4.19,12.02-1.47,4.83-4.41,6.13-8.87,3.83-2.39-1.23-3.56-2.89-2.65-5.82,7.08-22.84,14.09-45.69,21.05-68.56,1.23-4.03,4.26-4.86,7.56-5.1Zm.53,17.15c-.27.05-.54.1-.8.14-3.43,11.8-6.87,23.61-10.38,35.68h21.63c-3.57-12.24-7.01-24.03-10.45-35.83Z"/><path class="cls-1" d="m252.93,210.86c0,11.41-.13,22.82.07,34.22.07,4.14-2.01,5.57-5.57,5.75-4.05.21-6.01-1.63-6.02-5.73-.04-22.82-.03-45.63,0-68.45,0-4.2,1.76-5.78,5.99-5.69,4.04.08,5.51,1.53,5.52,5.67.03,11.41.01,22.82.01,34.23Z"/></svg>