<?xml version="1.0" encoding="UTF-8"?><svg id="Layer_1" xmlns="http://www.w3.org/2000/svg" viewBox="0 0 408.27 402.41"><defs><style>.cls-1{fill:#fff;}</style></defs><path class="cls-1" d="m408.27,182.55c-12.11,21.37-24.16,42.77-36.35,64.1-11.21,19.62-22.65,39.11-33.79,58.77-1.42,2.5-2.22,5.7-2.24,8.58-.18,21.82-.08,43.65-.11,65.47-.02,14.94-7.95,22.87-22.89,22.92-9.05.03-18.1.01-27.15,0-1.33,0-2.68,0-3.97-.25-2.84-.53-4.43-2.35-4.62-5.21-.21-3.02,1.14-5.2,4.11-6.01,1.51-.41,3.15-.47,4.74-.48,9.31-.04,18.63.04,27.94-.05,6.79-.07,9.84-3.03,9.85-9.72.06-27.81.05-55.62,0-83.43-.01-6.6-3.17-9.66-9.81-9.9-1.33-.05-2.66,0-3.99,0-71.06,0-142.12,0-213.18,0-1.2,0-2.4-.05-3.59.02-6.16.38-9.1,3.43-9.29,9.63-.02.53,0,1.06,0,1.6,0,26.88,0,53.76,0,80.64,0,8.53,2.67,11.2,11.21,11.2,52.43.01,104.86,0,157.29.02,1.85,0,3.74.05,5.54.43,3.02.64,4.48,2.77,4.38,5.8-.1,3.03-1.73,4.98-4.77,5.49-1.3.22-2.65.22-3.98.22-52.96.01-105.92.02-158.89,0-11.8,0-19.74-5.52-22.14-15.52-.58-2.42-.6-5.01-.6-7.52-.04-22.09.03-44.18-.11-66.27-.02-2.37-.74-5.01-1.92-7.07-22.03-38.39-44.07-76.78-66.39-115.01-4.68-8.01-4.76-15.06-.08-23.12C33.68,115.94,63.74,63.92,93.58,11.77,98.28,3.55,104.4-.03,113.87,0c60.01.21,120.03.21,180.04,0,9.48-.03,15.99,3.33,20.23,11.82,2.91,5.82,6.49,11.29,9.68,16.97,2.36,4.2,1.75,7.46-1.56,9.34-3.23,1.84-6.42.63-8.84-3.5-3.5-5.96-7.1-11.87-10.31-17.99-1.79-3.41-4.17-4.75-7.94-4.61-5.58.2-11.18.05-16.76.05-54.83,0-109.65.06-164.47-.1-4.91-.01-7.61,1.65-10.04,5.89-29.83,52-59.82,103.91-89.91,155.77-2.35,4.06-2.5,7.16-.09,11.29,19.23,32.95,38.24,66.03,57.31,99.06.64,1.11,1.35,2.18.91,1.8,3.28-3.56,6.57-7.11,9.85-10.67.76.57,1.52,1.14,2.28,1.71-1.68-2.97-3.42-5.9-5.02-8.9-2.02-3.78-1.27-7.29,1.82-8.98,3.01-1.65,6.25-.61,8.44,2.92,2.03,3.27,4.11,6.56,5.73,10.04,1.35,2.89,3.26,3.51,6.25,3.51,68.27-.08,136.53-.08,204.8,0,2.97,0,4.71-.71,6.28-3.46,17.08-29.89,34.31-59.7,51.59-89.48,1.28-2.21,1.41-3.81.08-6.11-25.92-44.74-51.77-89.53-77.55-134.35-1.28-2.22-2.62-3.14-5.28-3.13-51.63.09-103.26.09-154.89,0-2.86,0-4.22,1.08-5.54,3.37-25.65,44.59-51.35,89.15-77.14,133.66-1.44,2.49-1.57,4.26-.07,6.8,10.23,17.42,20.28,34.95,30.36,52.46.79,1.37,1.62,2.79,2.03,4.29.8,2.91-.2,5.37-2.88,6.74-2.65,1.35-5.21.85-7.19-1.48-.77-.9-1.38-1.95-1.97-2.98-10.64-18.42-21.19-36.89-31.94-55.23-2.86-4.88-2.94-9.22-.07-14.16,26.72-46.12,53.35-92.3,79.92-138.51,2.76-4.8,6.52-6.92,12.01-6.91,53.23.07,106.46.07,159.68,0,5.68,0,9.4,2.27,12.23,7.2,26.49,46.1,53.07,92.15,79.73,138.15,2.85,4.92,2.86,9.25,0,14.16-16.78,28.84-33.4,57.77-50.07,86.67-.66,1.14-1.28,2.3-.2,1.93,3.54,3.46,7.07,6.91,10.61,10.37l-1.51,1.83c.62-.96,1.29-1.89,1.86-2.87,19.27-33.39,38.48-66.81,57.87-100.13,2.08-3.58,1.99-6.33-.06-9.87-22.16-38.16-44.18-76.41-66.24-114.63-3.17-5.49-2.93-9.1.72-11.07,3.47-1.88,6.55-.28,9.62,5.05,22.13,38.34,44.26,76.67,66.36,115.03,1.38,2.39,2.45,4.95,3.67,7.43v6.39Z"/><path class="cls-1" d="m205,234.27c-9.57,5.17-17.97,10.64-27.07,14.42-18.57,7.71-35.57-2.34-37.77-25.3-.82-8.53-.13-17.2-.13-26.31-4.9-2.43-11.11-4.9-16.63-8.45-4.96-3.19-9.75-7.06-13.57-11.53-9.22-10.79-7.99-24.59,2.41-35.15,6.96-7.06,15.49-11.57,24.53-15.28,1.35-.55,2.7-1.09,4.26-1.72-.43-4.51-.96-8.96-1.27-13.43-.55-7.89-.11-15.71,2.72-23.19,5.3-13.97,17.51-20.09,32.04-16.25,9.44,2.5,17.55,7.47,25.19,13.35,1.26.97,2.49,1.98,4,3.18,3.41-2.48,6.73-5.07,10.22-7.42,6.89-4.62,14.15-8.47,22.5-9.68,14.77-2.13,25.73,5.11,29.75,19.55,2.59,9.29,2.3,18.67,1.12,28.1-.23,1.83-.47,3.65-.69,5.29,6.05,3,12.03,5.58,17.6,8.87,4.07,2.41,7.93,5.43,11.3,8.76,11.54,11.43,11.34,26.66-.15,38.19-6.9,6.92-15.19,11.68-24.25,14.94-4.07,1.46-4.59,3.45-3.98,7.3,1.65,10.46,1.9,20.96-1.84,31.11-5.28,14.33-18.04,20.47-32.67,16.19-9.24-2.7-17.2-7.6-24.77-13.32-1.26-.95-2.49-1.94-2.84-2.22Zm-1.46-39.56c0-.17,0-.33,0-.5,5.45,0,10.91.22,16.34-.13,1.64-.11,3.81-1.41,4.66-2.82,5.46-8.95,10.73-18.02,15.77-27.21.84-1.53.91-4.28.09-5.78-5.08-9.32-10.41-18.51-15.93-27.58-.84-1.38-3.08-2.62-4.71-2.67-9.83-.32-19.66-.19-29.49-.38-4.01-.08-6.64,1.52-8.54,5.05-1.95,3.62-4.56,6.88-6.46,10.52-11.76,22.56-12.5,13.51.24,35.64,11.19,19.44,4.85,14.88,27.24,15.87.27.01.53,0,.8,0Zm51.32-73.69c1.55-10.22,2.67-20.24-1.46-29.96-2.5-5.88-7.23-8.78-13.27-8.06-10.74,1.28-19.04,7.31-27.16,13.84,5.4,6.5,10.46,12.64,15.59,18.72.55.65,1.45,1.24,2.28,1.38,7.83,1.39,15.69,2.68,24.02,4.09Zm-.06,80.06c-8.2,1.37-16.14,2.68-24.08,4.05-.61.11-1.34.41-1.72.87-5.34,6.35-10.63,12.75-16.03,19.25,7.23,5.84,14.53,11.1,23.55,13.21,9.4,2.21,15.57-1.39,18.12-10.66,2.44-8.87,1.83-17.8.16-26.73Zm-101.9-.03c-1.57,9.97-2.58,19.72,1.12,29.22,2.79,7.16,8.4,10.04,15.91,8.5,9.64-1.98,17.37-7.43,24.84-13.54-5.41-6.53-10.62-12.86-15.9-19.13-.46-.54-1.34-.88-2.08-1.01-7.82-1.36-15.66-2.65-23.88-4.03Zm41.87-104.2c-6.8-5.55-13.78-10.31-22.05-12.86-9.14-2.82-15.8-.09-18.85,8.15-3.52,9.51-2.63,19.22-.94,28.88,8.27-1.39,16.12-2.68,23.95-4.07.83-.15,1.74-.72,2.29-1.37,5.13-6.08,10.19-12.22,15.6-18.72Zm-51.04,39.88c-3.32,1.48-6.51,2.76-9.57,4.3-6.11,3.06-11.85,6.64-15.84,12.4-3.43,4.94-3.66,10.06-.27,14.85,6.36,8.99,15.93,13.1,25.72,16.99,2.94-7.97,5.71-15.42,8.39-22.9.28-.78.29-1.84.01-2.61-2.69-7.48-5.46-14.94-8.44-23.02Zm120.26.13c-2.93,7.95-5.69,15.4-8.42,22.87-.22.59-.47,1.36-.28,1.89,2.85,7.81,5.76,15.6,8.75,23.62,8.54-3.29,16.58-6.99,22.94-13.53,6.86-7.05,6.85-14.29-.04-21.35-6.37-6.52-14.39-10.26-22.95-13.48Zm-50.98,70.02h-18.25c3.29,3.59,6.11,6.68,9.14,9.99,3.1-3.4,5.89-6.47,9.1-9.99Zm35.04-31.03c-3.27,5.67-6.05,10.5-9.27,16.09,4.97-1.13,9.1-2.07,13.45-3.06-1.43-4.47-2.67-8.33-4.18-13.03Zm-88.33-29.61c3.24-5.64,6-10.46,9.21-16.06-5,1.11-9.07,2.01-13.39,2.97,1.4,4.37,2.64,8.27,4.18,13.09Zm44.18-41.07c-3.13,3.43-5.92,6.49-9.15,10.03h18.26c-3.19-3.51-5.93-6.53-9.11-10.03Zm-44.18,70.74c-1.51,4.69-2.78,8.62-4.2,13.04,4.48.96,8.6,1.85,13.46,2.89-3.27-5.62-6.07-10.45-9.26-15.94Zm88.36-29.68c1.53-4.84,2.79-8.82,4.17-13.16-4.58-.96-8.62-1.81-13.42-2.82,3.24,5.6,6.01,10.38,9.25,15.98Z"/><path class="cls-1" d="m116.9,345.81c0,7.27.02,14.3,0,21.33-.02,4.14-1.62,5.68-5.79,5.7-4.17.02-6.02-1.59-6.03-5.58-.04-18.48,0-36.96-.03-55.44,0-3.37,1.33-5.4,4.88-5.35,7.31.1,14.64-.1,21.91.52,9.43.8,14.87,5.78,16.18,13.77,1.77,10.87-1.47,18.08-10.06,22.4-.33.17-.61.45-1.17.87,3.57,6.66,7.15,13.29,10.68,19.94,2.05,3.86,1.41,6.16-2.21,8.26-3.52,2.04-6.13,1.35-8.2-2.52-3.32-6.2-6.46-12.5-9.68-18.76q-3.06-5.96-10.47-5.13Zm0-10.01c4.76,0,9.01.3,13.21-.09,4.11-.38,6.26-3.63,6.52-8.7.24-4.83-1.84-8.82-5.62-9.41-4.51-.71-9.13-.71-13.88-1.04-.11,1.65-.22,2.55-.22,3.46-.02,5.17,0,10.33,0,15.78Z"/><path class="cls-1" d="m165.08,354.3c.8,7.49,5.35,11.12,12.05,9.97,2.71-.46,5.33-1.58,7.91-2.58,2.43-.94,4.11-.23,5.35,1.92,1.24,2.16,1.03,4.12-1.02,5.62-7.7,5.64-16.16,5.61-24.6,2.43-7.74-2.92-11.58-8.96-11.43-17.35.05-3.05-.06-6.12.23-9.15.9-9.25,10.05-16.18,20.65-15.8,9.79.36,17.33,7.43,17.64,16.52.2,5.99-1.89,8.29-7.89,8.39-6.21.1-12.43.02-18.9.02Zm.12-6.79c3.99,0,7.91.1,11.82-.06,1.21-.05,3.27-.59,3.39-1.22.28-1.38-.05-3.18-.79-4.43-1.73-2.92-6.36-4.06-9.96-2.66-3.52,1.37-4.98,4.02-4.47,8.36Z"/><path class="cls-1" d="m221.46,366.79c-3.85,3.9-7.74,6.74-13.06,6.85-5.83.12-10.38-3.09-11.6-8.31-1.62-6.93.77-12.64,6.74-14.75,3.32-1.17,6.95-1.56,10.48-2.01,2.3-.29,4.66-.06,6.98-.06-.27-8.22-3.73-11.02-11.06-9.58-1.67.33-3.33.93-4.85,1.7-2.28,1.15-4.09,1.08-5.28-1.4-1.12-2.32-1.57-4.73,1.03-6.34,7.31-4.53,15.14-4.87,22.86-1.54,6.74,2.91,9.11,8.89,9.16,15.91.04,6.24-.06,12.49.06,18.73.07,3.5-.26,6.43-4.69,6.78-3.97.3-5.49-.88-6.77-5.97Zm-.39-12.69c-3.36.45-6.39.64-9.3,1.32-3.09.72-4.39,2.94-3.34,6.03,1.02,2.98,3.36,3.42,6.12,2.63,4.08-1.17,6.32-4.35,6.52-9.97Z"/><path class="cls-1" d="m292.65,329.71c3.17,0,5.92.1,8.67-.03,3.34-.15,5,1.32,5,4.66,0,3.23-1.37,4.95-4.85,4.74-2.76-.17-5.53-.03-8.66-.03,0,6.79-.21,13.27.18,19.71.08,1.29,2.29,2.87,3.84,3.52,1.63.68,3.67.28,5.5.58,2.86.47,3.94,2.46,3.85,5.17-.09,2.57-1.35,4.64-3.98,4.6-4.34-.06-8.82-.13-12.96-1.23-5.11-1.36-7.87-5.5-7.94-10.77-.21-14.89-.21-29.78-.19-44.67,0-3.11,2.5-5,6.07-4.69,2.9.25,5.59.96,5.5,4.85-.1,4.35-.02,8.71-.02,13.58Z"/><path class="cls-1" d="m240.25,351.62c0-.8-.01-1.59,0-2.39.31-16.47,14.55-25.13,29.5-17.94,4.3,2.07,5.55,4.88,3.6,8.12-1.24,2.05-2.86,3.07-5.31,2.01-1.09-.47-2.23-.88-3.37-1.2-8-2.27-12.68,1.22-12.8,9.51-.02,1.2-.02,2.39,0,3.59.13,8.23,4.95,11.77,12.88,9.42,1.14-.34,2.26-.79,3.34-1.28,2.73-1.23,4.63-.16,5.99,2.18,1.43,2.47.91,4.61-1.44,6.23-7.09,4.89-14.78,4.87-22.41,2.01-6.89-2.59-9.52-8.43-9.83-15.47-.07-1.59-.01-3.19-.01-4.78h-.13Z"/><path class="cls-1" d="m203.9,141.95c10.37.02,19.08,8.75,19.06,19.11-.02,10.37-8.74,19.06-19.1,19.05-10.37-.01-19.07-8.74-19.06-19.09.01-10.37,8.74-19.08,19.1-19.07Zm-.22,26.15c3.73.12,7.2-3.22,7.26-6.97.06-3.73-3.33-7.16-7.07-7.16-3.58,0-6.87,3.16-7.06,6.77-.19,3.7,3.11,7.23,6.87,7.35Z"/></svg>