<?xml version="1.0" encoding="UTF-8"?><svg id="Layer_1" xmlns="http://www.w3.org/2000/svg" viewBox="0 0 383.28 383.06"><defs><style>.cls-1{fill:#fff;}</style></defs><path class="cls-1" d="m228.44,197.96c-2.93,3.14-5.96,6.6-9.2,9.85-25.01,25.08-49.98,50.2-75.13,75.14-12.57,12.46-31.99,12.38-44.42.22-12.29-12.02-12.43-31.59-.31-44.44.92-.98,1.83-1.97,2.21-2.38-12.66-12.68-25.1-25.16-37.75-37.83-23.26,23-31.47,50.9-24.64,83.18C9.89,290.17-1.92,315.53.25,336.62c2.41,23.47,19.92,42.1,42.71,45.72,11.57,1.84,22.61,0,32.91-5.67,13.25-7.3,21.48-18.58,25.39-32.99,5.94.7,11.59,1.81,17.27,1.96,25.1.7,46.57-7.93,64.34-25.74,27.22-27.28,54.48-54.52,81.71-81.79.77-.77,1.45-1.62,1.92-2.15-12.63-12.62-25.05-25.01-38.06-38.01Z"/><path class="cls-1" d="m335.37,0c3.86.87,7.81,1.48,11.57,2.66,22.95,7.21,37.18,28.53,35.62,53.15-1.43,22.51-18.93,41.79-41.81,46.06-.71.13-1.4.39-2.22.63,7.88,33.38-.12,62.08-24.21,85.93-12.75-12.71-25.25-25.18-37.91-37.8,5.61-5.18,9.88-11.44,11.17-19.44,2.16-13.39-4.06-26.44-15.75-32.84-11.8-6.46-26.16-4.99-36.12,4.35-9.64,9.04-18.82,18.57-28.16,27.92-19.3,19.31-38.58,38.65-57.55,57.67-12.62-12.66-25.07-25.14-37.96-38.06-.14.82-.19.51-.05.38,28.93-28.91,57.43-58.28,86.97-86.55,22.37-21.41,49.59-27.39,79.69-20.14.48.12.97.18,1.93.35.41-1.78.78-3.54,1.23-5.29,5.45-20.92,22.57-35.85,43.92-38.34.98-.11,1.93-.42,2.9-.64,2.25,0,4.49,0,6.74,0Z"/><path class="cls-1" d="m383.28,337.59c-.85,3.37-1.5,6.8-2.57,10.09-6.91,21.2-27.33,35.87-49.06,35.36-23.17-.54-42.52-15.25-48.87-37.14-.34-1.18-.7-2.36-1.08-3.66-33.86,8.64-63.07.77-87.56-23.81,12.75-12.68,25.26-25.11,38.58-38.36.5.79,1.03,2.18,2.01,3.09,12.89,12.18,32.27,12,44.39-.34,12.1-12.32,12.15-31.46-.21-44.1-13.77-14.09-27.8-27.94-41.74-41.86-14.37-14.36-28.77-28.7-42.86-42.75,12.67-12.66,25.14-25.12,37.82-37.79.4.37,1.32,1.15,2.17,2.01,26.98,26.99,53.91,54.03,80.94,80.98,18.93,18.88,27.78,41.56,26.06,68.26-.28,4.32-1.13,8.61-1.74,13.16.45.19.97.52,1.53.64,22.3,4.4,37.65,20.26,41.59,42.97.08.45.41.87.62,1.3v11.98Z"/><path class="cls-1" d="m54.67,0c6.67,1.89,13.76,2.9,19.92,5.85,14.81,7.11,23.81,19.23,27.33,35.34.1.47.3.93.57,1.76,31.84-6.01,59.29,2.17,81.77,25.22-12.68,12.72-25.14,25.21-37.72,37.83-.69-.65-1.67-1.59-2.66-2.52-13.02-12.2-32.16-12.06-44.42.34-12.14,12.28-12.18,31.75.23,44.42,12.73,13.01,25.73,25.77,38.61,38.64,14.64,14.63,29.29,29.27,43.93,43.91.78.78,1.5,1.61,2.09,2.25-12.58,12.51-25.03,24.88-38.61,38.39-.32-.64-.67-2.13-1.59-3.06-26.6-26.66-53.22-53.31-79.92-79.87-24.01-23.89-32.25-52.2-24.27-85.16.09-.36.21-.72.28-1.09.02-.11-.07-.24.12.33-6.38-3.27-12.7-5.72-18.16-9.43C4.86,81.4-3.08,59.4,2.06,39.12,7.32,18.39,24.49,3.19,45.46.66c.84-.1,1.65-.44,2.47-.66,2.25,0,4.49,0,6.74,0Z"/><path class="cls-1" d="m228.44,197.96c13.01,12.99,25.43,25.39,38.06,38.01-.47.53-1.16,1.38-1.92,2.15-27.23,27.27-54.49,54.51-81.71,81.79-17.77,17.8-39.23,26.44-64.34,25.74-5.68-.16-11.33-1.26-17.27-1.96-3.91,14.41-12.13,25.69-25.39,32.99-10.29,5.67-21.33,7.51-32.91,5.67-22.8-3.62-40.3-22.25-42.71-45.72-2.17-21.1,9.64-46.45,38.95-54.92-6.83-32.28,1.38-60.19,24.64-83.18,12.65,12.68,25.09,25.15,37.75,37.83-.38.41-1.29,1.4-2.21,2.38-12.12,12.85-11.99,32.42.31,44.44,12.44,12.17,31.86,12.25,44.42-.22,25.15-24.94,50.12-50.06,75.13-75.14,3.24-3.25,6.27-6.7,9.2-9.85Z"/></svg>