<?xml version="1.0" encoding="UTF-8"?><svg id="Layer_1" xmlns="http://www.w3.org/2000/svg" viewBox="0 0 379.62 379.71"><defs><style>.cls-1{fill:#fff;}</style></defs><path class="cls-1" d="m265.7,288.53c0,16.87.04,33.27-.03,49.67-.02,3.46-.14,6.98-.75,10.37-3.24,17.75-18.26,30.85-36.23,30.96-36.05.23-72.1.26-108.14,0-20.24-.15-36.67-16.81-36.91-37.08-.25-21.19-.07-42.38-.08-63.57,0-1.69,0-3.39,0-5.52-14.5,0-28.53.05-42.56-.03-3.3-.02-6.66-.16-9.89-.75C13.19,269.27.22,254.11.14,235.85c-.17-35.74-.2-71.48,0-107.22.12-20.75,16.76-37.23,37.57-37.41,23.56-.2,47.12-.05,70.67-.05,1.7,0,3.4,0,5.53,0,0-16.87-.04-33.27.03-49.67.02-3.46.12-6.98.75-10.37C117.99,13.18,133.13.23,151.39.14c35.73-.17,71.46-.2,107.19,0,20.76.12,37.21,16.74,37.41,37.57.21,21.03.05,42.06.06,63.1,0,1.7,0,3.39,0,5.54,14.48,0,28.51-.04,42.54.03,3.3.02,6.66.15,9.89.74,17.93,3.3,30.89,18.42,30.98,36.71.18,35.74.21,71.48,0,107.22-.12,20.76-16.75,37.24-37.56,37.42-23.56.21-47.12.05-70.67.06-1.69,0-3.39,0-5.53,0Zm-182.14-30.4c0-11.98,0-23.48,0-34.98.02-25.01,15.85-40.88,40.83-40.89,44.1-.01,88.19.02,132.29-.02,14.52-.01,24.17-9.56,24.19-23.99.05-39.68.05-79.36,0-119.04-.02-14.25-9.6-23.93-23.74-23.95-34.77-.05-69.54-.06-104.32,0-14.1.02-23.67,9.74-23.71,23.97-.05,15.97-.02,31.93,0,47.9,0,1.22.12,2.43.21,4.02,2.01,0,3.71,0,5.41,0,22.76,0,45.52-.01,68.28,0,6.2,0,9.41,2.56,9.5,7.43.1,5.04-3.22,7.71-9.68,7.73-7.9.02-15.81,0-23.71,0-46.63,0-93.25-.02-139.88.01-13.39,0-23.81,9.19-23.88,21.81-.22,36.04-.2,72.09,0,108.13.06,11.71,9.8,21.5,21.5,21.75,15.32.32,30.65.08,46.72.08Zm212.5-136.4c0,11.61,0,22.95,0,34.29,0,25.7-15.66,41.42-41.26,41.42-44.1,0-88.19-.03-132.29.02-13.94.01-23.73,9.65-23.75,23.45-.06,40-.06,79.99,0,119.99.02,13.63,9.7,23.49,23.2,23.52,35.09.09,70.18.08,105.26,0,13.53-.03,23.18-9.84,23.29-23.44.08-9.48.02-18.97.02-28.45,0-7.86,0-15.71,0-23.99h-5.59c-22.29,0-44.57,0-66.86,0-1.42,0-2.86.1-4.26-.08-4.23-.55-6.44-3.14-6.69-7.3-.24-4.12,2.55-7.25,6.75-7.71,1.56-.17,3.16-.08,4.74-.08,46.31,0,92.62,0,138.93,0,8.22,0,16.44.15,24.65-.06,11.99-.3,21.98-9.82,22.05-21.72.22-36.04.21-72.09,0-108.13-.07-12.13-10.13-21.72-22.38-21.87-14.38-.18-28.76-.05-43.15-.04-.75,0-1.5.1-2.68.19Z"/><path class="cls-1" d="m167.24,68.37c-8.23.11-15.2-6.64-15.36-14.85-.16-8.49,6.71-15.49,15.19-15.48,8.24.02,15.09,6.84,15.13,15.08.04,8.25-6.72,15.15-14.96,15.25Z"/><path class="cls-1" d="m212.76,341.65c-8.23.1-15.19-6.65-15.34-14.87-.16-8.49,6.73-15.49,15.2-15.46,8.24.02,15.08,6.85,15.12,15.09.04,8.25-6.73,15.14-14.97,15.24Z"/></svg>