<?xml version="1.0" encoding="UTF-8"?><svg id="Layer_1" xmlns="http://www.w3.org/2000/svg" xmlns:xlink="http://www.w3.org/1999/xlink" viewBox="0 0 209 203"><defs><style>.cls-1{fill:none;}.cls-2{clip-path:url(#clippath);}.cls-3{fill:#123a5f;}</style><clipPath id="clippath"><rect class="cls-1" width="209" height="203"/></clipPath></defs><g class="cls-2"><g id="Mask_Group_164"><g id="Artwork_200"><g id="Group_11655"><path id="Path_16915" class="cls-3" d="m19.14,194.63c-2.5-1.15-3.36-3.09-3.31-5.83.13-6.96.04-13.91.05-20.87,0-3.56,1.66-5.23,5.2-5.24,2.05,0,4.1,0,6.42,0v-2c0-13.01.04-26.02-.03-39.03-.2-2.29,1.05-4.45,3.12-5.43,2.34-1.23,4.61-2.61,7.05-4.01-1.01-1.82-1.98-3.54-2.92-5.27-1.57-2.86-1.24-4.47,1.32-6.4,5.66-4.25,11.3-8.52,17-12.71,1-.59,1.48-1.76,1.2-2.89-.28-1.85-.47-3.72-.56-5.59-.19-2.99,1.52-4.83,4.51-4.9,1.92-.04,3.85,0,5.98,0v-10.6c0-1.88.02-3.75,0-5.63.16-1.3-.77-2.48-2.07-2.64-.15-.02-.3-.02-.45-.01-.24-.01-.49.02-.73,0-2.45-.27-4.18.18-5.74,2.66-2.85,4.51-8.88,6.05-13.67,4.19-4.7-1.82-8.05-6.85-7.74-11.63.27-5.39,4.14-9.92,9.42-11.03,5.02-1.05,10.15,1.29,12.65,5.76.4.94,1.37,1.5,2.39,1.37,1.93-.12,3.86-.03,5.77.27,5.21.97,8.96,5.56,8.87,10.87.05,5.38,0,10.76,0,16.29h6.82c.03-.55.08-1.13.08-1.71,0-10.59.03-21.18-.04-31.76-.05-.98-.43-1.91-1.07-2.66-1.73-1.94-3.68-3.68-5.47-5.56-.56-.7-1.53-.95-2.36-.6-6.28,1.87-12.89-1.71-14.75-8-1.87-6.28,1.71-12.89,8-14.75.59-.18,1.19-.3,1.81-.39,7.47-1.12,14.4,5.98,12.94,13.59-.57,1.96.13,4.06,1.76,5.28,2.13,1.88,4.02,4.02,6.07,5.99,1.25,1.16,1.93,2.82,1.85,4.52-.04,11.31-.02,22.63-.02,33.94v2.12h11.53c.03-.57.08-1.15.08-1.74,0-13.07-.01-26.14.03-39.21.13-1.07-.46-2.1-1.44-2.52-4.89-2.49-7.3-8.12-5.74-13.38,1.59-5.13,6.32-8.65,11.69-8.68,5.45.13,10.14,3.89,11.47,9.17,1.2,5.32-1.37,10.78-6.24,13.25-.32.17-.64.32-1,.5v42.6h11.57v-1.9c0-11.19.05-22.39-.04-33.58-.11-2.13.76-4.19,2.36-5.59,2.31-2.13,4.44-4.46,6.71-6.63.74-.67,1.07-1.69.88-2.67-.32-2.31-.25-4.66.22-6.95,1.7-6.05,7.99-9.57,14.03-7.87.15.04.3.09.45.14,6.25,2.03,9.67,8.75,7.64,15-1.93,5.94-8.12,9.37-14.18,7.87-1.1-.47-2.38-.14-3.11.82-1.99,2.19-4.89,3.93-5.96,6.47-1.04,2.47-.28,5.71-.28,8.61,0,8.71,0,17.42,0,26.28h6.82c.03-.53.08-1.11.08-1.69,0-4.78-.02-9.56.01-14.34-.16-6.15,4.7-11.26,10.84-11.42.22,0,.44,0,.66,0,1.57,0,3.14,0,4.65,0,3.61-6.19,8.46-8.45,14.51-6.82,4.98,1.46,8.43,6,8.49,11.19-.01,5.32-3.51,10-8.61,11.52-5.95,1.65-10.6-.66-14.4-7.18-1.47,0-2.98-.04-4.49,0-2.12.06-2.95.92-2.95,3,0,5.2,0,10.4,0,15.87,1.92,0,3.77-.01,5.62,0,3.45.03,5.13,1.86,4.85,5.27-.04,1.51-.19,3.02-.45,4.51-.44,1.86.16,2.94,1.69,4.05,5.59,4.04,11.06,8.24,16.57,12.38,2.29,1.72,2.7,3.48,1.35,5.97-.97,1.81-2,3.59-3.11,5.56,2.16,1.24,4.23,2.59,6.44,3.66,2.82,1.36,3.8,3.41,3.77,6.53-.14,12.7-.06,25.41-.06,38.12v2.18c2.29,0,4.45-.01,6.6,0,3.3.03,5,1.74,5.01,5.06.01,7.02-.08,14.04.05,21.05.05,2.74-.8,4.68-3.31,5.83h-25.78c-2.5-1.15-3.36-3.09-3.31-5.83.13-7.02.03-14.04.05-21.05,0-3.32,1.72-5.04,5.01-5.06,2.28-.02,4.55,0,6.7,0,.16-.27.22-.32.22-.37.02-12.77.03-25.53.02-38.3-.04-.51-.29-.98-.7-1.28-1.62-1-3.31-1.9-5.08-2.89-.94,1.68-1.79,3.2-2.65,4.72-1.82,3.22-3.81,3.88-7.24,2.39-6.43-2.78-12.86-5.57-19.28-8.37-.71-.42-1.61-.36-2.26.16-3.52,2.32-7.06,4.63-10.79,6.6-1.42.59-2.37,1.96-2.43,3.5-.76,6.67-1.62,13.32-2.48,19.98-.41,3.15-1.88,4.4-5.09,4.42-1.91.01-3.83,0-5.73,0v9.44c6.18,0,12.22,0,18.27,0,3.53,0,5.19,1.68,5.19,5.24,0,6.96-.08,13.92.05,20.87.05,2.74-.8,4.68-3.31,5.83h-49.38c-2.5-1.15-3.36-3.09-3.31-5.83.13-7.01.03-14.03.05-21.05,0-3.32,1.71-5.05,5.01-5.06,5.32-.02,10.65,0,15.97,0h2.49v-9.44c-2.18,0-4.23.04-6.28,0-2.74-.06-4.17-1.46-4.51-4.18-.86-6.96-1.78-13.91-2.61-20.87-.11-1.18-.88-2.2-1.99-2.62-3.7-2.03-7.3-4.23-10.83-6.53-.73-.68-1.81-.84-2.7-.39-6.4,2.85-12.84,5.61-19.27,8.39-3.25,1.4-4.96.84-6.81-2.23-.99-1.64-1.97-3.28-2.97-4.94-1.57.89-2.9,1.75-4.32,2.42-1.02.38-1.65,1.42-1.52,2.5.05,12.04.03,24.08.03,36.12v1.67c.2.05.41.09.62.12,2.06,0,4.11,0,6.17.02,3.53.02,5.18,1.68,5.19,5.25,0,6.96-.08,13.92.05,20.87.05,2.74-.8,4.68-3.31,5.83l-25.78.02Zm118.11-111.37c-2.23,15.94-15.57,27.98-31.65,28.57-16.92.52-31.52-11.79-33.87-28.55h-9c.19,1.25.3,2.4.55,3.51.68,2.28-.28,4.74-2.32,5.96-3.56,2.51-7.04,5.14-10.54,7.72-2.18,1.6-4.36,3.21-6.6,4.85l7.27,12.7c6.52-2.79,12.89-5.41,19.15-8.26,2.23-1.23,5-.84,6.8.96,3.56,3.21,7.75,5.66,12.3,7.17,4.06,1.25,5.51,3.69,5.77,7.78.39,6.26,1.36,12.48,2.09,18.78h14.45c.08-.47.16-.88.21-1.29.69-5.95,1.57-11.88,1.98-17.84.25-3.75,1.67-6.01,5.3-7.21,4.79-1.58,9.16-4.22,12.79-7.72,2.04-1.96,4.1-2.17,6.6-1.01,5.81,2.69,11.68,5.26,17.52,7.86.58.26,1.18.46,1.82.71l7.2-12.6c-.57-.44-1.03-.82-1.51-1.18-5.27-3.96-10.52-7.95-15.83-11.86-1.66-1.1-2.48-3.09-2.08-5.04.19-1.3.36-2.61.55-4.01h-8.95Zm-56.64,0c1.31,11.11,12.23,20.01,24.33,19.9,11.6-.11,22.24-9.17,23.31-19.9h-47.65Zm43.01,88.27h-38.26v14.3h38.26v-14.3Zm-98.91-.05v14.3h14.66v-14.3h-14.66Zm159.49,14.36v-14.3h-14.66v14.3h14.66ZM138.36,20.58c-.1,1.72,1.23,3.2,2.95,3.29s3.2-1.23,3.29-2.95c0-.03,0-.06,0-.08-.06-1.74-1.38-3.18-3.11-3.38-1.69.08-3.04,1.43-3.13,3.12Zm-34.2,3.02c1.82.12,3.4-1.26,3.52-3.09-.06-1.7-1.46-3.05-3.16-3.05-1.58-.08-2.93,1.13-3.02,2.72,0,.06,0,.12,0,.17-.19,1.6.95,3.04,2.54,3.23.04,0,.07,0,.11.01h0Zm-36.78.24c1.65-.01,2.98-1.35,2.99-3,.06-1.72-1.2-3.33-2.63-3.36-1.73.15-3.14,1.44-3.44,3.15.05,1.7,1.38,3.09,3.08,3.2h0Zm95.84,30.56c1.7-.06,3.03-1.47,3-3.17.11-1.52-1.02-2.84-2.54-2.96-.12,0-.24-.01-.36,0-1.69-.06-3.11,1.26-3.17,2.95,0,.08,0,.15,0,.23.11,1.63,1.44,2.9,3.07,2.96Zm-120.7-3.24c.06,1.69,1.39,3.06,3.08,3.18,1.67-.09,3.04-1.35,3.27-3.01-.07-1.63-1.38-2.93-3.01-3-1.69-.1-3.17,1.15-3.35,2.83h0Z"/></g></g></g></g></svg>