<?xml version="1.0" encoding="UTF-8"?><svg id="Layer_1" xmlns="http://www.w3.org/2000/svg" xmlns:xlink="http://www.w3.org/1999/xlink" viewBox="0 0 210 203"><defs><style>.cls-1{fill:none;}.cls-2{clip-path:url(#clippath);}.cls-3{fill:#123a5f;}</style><clipPath id="clippath"><rect class="cls-1" width="210" height="203"/></clipPath></defs><g class="cls-2"><g id="Mask_Group_161"><g id="Artwork_203"><g id="Group_11657"><path id="Path_16927" class="cls-3" d="m126.71,150.34v26.75c3.07,0,6.05-.01,9.02,0,3.11.01,4.24,1.16,4.25,4.31.01,3.9.02,7.8,0,11.7-.02,2.84-1.22,4.04-4.1,4.04-19.57.01-39.14.01-58.71,0-2.85,0-4.03-1.21-4.05-4.09-.02-3.97-.02-7.94,0-11.91.02-2.85,1.21-4.02,4.09-4.05,2.99-.02,5.98,0,9.12,0v-26.75H17.68c-7.53,0-11.45-3.92-11.45-11.46V24.6c0-7.38,3.96-11.34,11.35-11.34h90.68c4.08,0,4.96.91,4.96,5.07,0,28.62,0,57.24,0,85.86v2.68h88.7c3.99,0,4.93.93,4.93,4.9,0,9.12,0,18.25,0,27.37,0,7.21-4.03,11.2-11.29,11.2-22.08,0-44.16,0-66.24,0h-2.62ZM12.92,40.11v99.16c0,3.27,1.11,4.38,4.39,4.38,59.49,0,118.98,0,178.47,0,3.27,0,4.39-1.12,4.39-4.39,0-7.94,0-15.88,0-23.82,0-.6-.08-1.19-.12-1.88h-88.55c-4,0-4.94-.93-4.94-4.88,0-22.01,0-44.02,0-66.03v-2.55H12.92Zm93.47-6.88v-13.28H17.21c-.42-.02-.84,0-1.25.03-1.62.06-2.92,1.36-2.98,2.98-.13,3.39-.04,6.78-.04,10.26h93.44Zm-13.07,117.21v26.55h26.48v-26.5h-9.91c0,3.07,0,5.98,0,8.9-.01,2.77-1.27,4.35-3.41,4.31-2.07-.04-3.26-1.57-3.27-4.23-.01-2.97,0-5.95,0-9.02h-9.89Zm39.93,33.45h-53.31v6.41h53.31v-6.41Z"/><path id="Path_16928" class="cls-3" d="m167.65,43.35c3.06,0,5.96.08,8.85-.07.56-.03,1.2-.93,1.58-1.57,2.74-4.82,8.87-6.5,13.69-3.76s6.5,8.87,3.76,13.69c-1.16,2.04-2.99,3.6-5.19,4.43-4.68,1.83-10-.17-12.3-4.65-.39-.96-1.38-1.53-2.41-1.4-4.74.05-9.47-.05-14.21.06-1.82.09-3.58-.65-4.78-2.02-3.33-3.46-6.73-6.86-10.21-10.17-.79-.71-1.8-1.12-2.86-1.17-7.03-.1-14.07-.05-21.1-.05h-2.4v-6.69h6.05c6.06,0,12.12.11,18.17-.05,2.44-.2,4.83.77,6.43,2.62,2.86,3.13,5.95,6.05,9.11,9.22,2.2-2.54,4.32-4.99,6.43-7.44,3.54-4.12,7.1-8.22,10.57-12.39.98-1.39,2.62-2.16,4.32-2,.69.06,1.4-.04,2.09.02,2.42.2,4.22-.08,5.75-2.65,2.25-3.8,7.14-4.93,11.28-3.41,5.18,1.91,7.83,7.66,5.92,12.84-1.91,5.18-7.66,7.83-12.84,5.92-2.18-.8-4.01-2.34-5.18-4.35-1.08-1.84-5.75-2.51-7.13-.93-4.38,5.05-8.7,10.15-13.04,15.23-.14.23-.25.48-.34.74Zm19.17.02c-1.84,0-3.34,1.48-3.35,3.31,0,1.84,1.48,3.34,3.31,3.35,1.84,0,3.34-1.48,3.35-3.31,0-.02,0-.04,0-.05-.03-1.81-1.5-3.27-3.31-3.29h0Zm9.85-16.75c1.84.09,3.4-1.33,3.49-3.17.09-1.84-1.33-3.4-3.17-3.49-1.84-.09-3.4,1.33-3.49,3.17,0,.02,0,.04,0,.06-.03,1.81,1.36,3.32,3.17,3.44h0Z"/><path id="Path_16929" class="cls-3" d="m119.97,96.72v-6.56h2.24c14.75,0,29.51-.02,44.26.04,1.31.1,2.57-.51,3.31-1.6,2.31-3.05,4.72-6.02,7.16-8.97.74-.72.94-1.83.5-2.77-1.65-4.32-.07-9.21,3.79-11.76,4.6-3.08,10.83-1.84,13.9,2.77,2.03,3.04,2.25,6.95.56,10.2-2.11,4.12-6.79,6.22-11.27,5.05-.92-.34-1.95.01-2.46.84-2.9,3.74-5.81,7.48-8.91,11.05-.9,1.01-2.15,1.64-3.49,1.76-16.21.11-32.43.07-48.65.07-.32-.02-.63-.06-.94-.11Zm70.15-23.24c.02-1.84-1.45-3.35-3.28-3.37-1.84-.02-3.35,1.45-3.37,3.28s1.45,3.35,3.28,3.37c.02,0,.03,0,.05,0,1.81-.02,3.29-1.47,3.32-3.29Z"/><path id="Path_16930" class="cls-3" d="m120.02,53.38v-6.69h2.12c7.66,0,15.31.07,22.97-.04,1.96-.16,3.88.66,5.12,2.19.58.69,1.29,1.26,1.9,1.93,1.91,2.09,3.55,3.73,7.12,2.81,4.2-1.09,8.42,2,10.07,6.08,2.08,5.12-.39,10.96-5.52,13.04-2.99,1.21-6.37.91-9.1-.81-3.75-2.29-5.51-6.82-4.27-11.04.44-1.45-.03-2.17-.85-3.24-2.63-3.46-5.89-4.59-10.24-4.32-6.36.39-12.78.1-19.33.1Zm40.01,13.36c1.84,0,3.34-1.48,3.34-3.32,0-1.84-1.48-3.34-3.32-3.34s-3.34,1.48-3.34,3.32c0,.02,0,.03,0,.05.04,1.81,1.5,3.27,3.32,3.29h0Z"/><path id="Path_16931" class="cls-3" d="m120.01,23.29v-6.68h2.32c7.72,0,15.44-.02,23.16.02,1.03.15,2.02-.41,2.43-1.36,2.09-4.13,6.81-6.22,11.28-4.99,5.34,1.36,8.57,6.8,7.21,12.14-.89,3.5-3.6,6.24-7.09,7.18-4.45,1.27-9.19-.75-11.35-4.84-.43-1.01-1.48-1.62-2.57-1.49-7.65.06-15.3.03-22.95.03h-2.44Zm36.79-6.67c-1.84-.06-3.37,1.39-3.43,3.23s1.39,3.37,3.23,3.43c1.84.06,3.37-1.39,3.43-3.23,0-.02,0-.03,0-.05,0-1.81-1.42-3.31-3.23-3.38Z"/><path id="Path_16932" class="cls-3" d="m120.02,80.13v-6.68c3.8,0,7.6-.06,11.39.03,1.57.04,2.56-.2,3.43-1.82,2.2-3.9,6.8-5.77,11.1-4.51,5.34,1.42,8.51,6.9,7.08,12.24-.89,3.34-3.45,5.99-6.76,6.99-4.26,1.38-8.91-.34-11.24-4.17-.69-1.5-2.28-2.36-3.91-2.11-3.61.15-7.23.04-11.09.04Zm23.25-.01c1.84.03,3.36-1.43,3.39-3.27.03-1.84-1.43-3.36-3.27-3.39-1.84-.03-3.36,1.43-3.39,3.27,0,.02,0,.04,0,.06.01,1.81,1.46,3.28,3.27,3.33Z"/><path id="Path_16933" class="cls-3" d="m19.71,126.8v-6.5h6.59c0-3.11,0-6.07,0-9.04.01-3.27,1.11-4.37,4.39-4.38,2.91-.01,5.82,0,8.99,0,0-3.12,0-6.09,0-9.06.01-3.15,1.14-4.3,4.25-4.32,2.97-.01,5.95,0,9.13,0,0-4.22,0-8.24,0-12.26,0-3.39,1.09-4.45,4.52-4.46,2.85,0,5.7,0,8.85,0,0-3.05,0-6.02,0-8.98.01-3.28,1.11-4.38,4.38-4.39,2.91-.01,5.82,0,8.99,0v-11.97c0-3.73,1-4.74,4.65-4.75,3.34,0,6.68,0,10.03,0,4.59,0,5.38.77,5.38,5.28,0,21.86,0,43.72,0,65.58v2.61h13.22v6.62H19.71Zm73.32-6.64V53.55h-6.44v66.6h6.44Zm-19.78-49.96v49.89h6.45v-49.89h-6.45Zm-6.97,49.96v-36.51h-6.44v36.51h6.44Zm-19.77-19.87v19.8h6.43v-19.8h-6.43Zm-13.41,13.37v6.47h6.43v-6.47h-6.43Z"/><path id="Path_16934" class="cls-3" d="m126.45,126.85h-6.41v-6.5h6.41v6.5Z"/><path id="Path_16935" class="cls-3" d="m39.74,29.96c-1.84.04-3.36-1.42-3.4-3.25-.04-1.84,1.42-3.36,3.25-3.4,1.84-.04,3.36,1.42,3.4,3.25.02,1.83-1.42,3.34-3.25,3.4Z"/><path id="Path_16936" class="cls-3" d="m32.96,26.6c.02,1.84-1.45,3.34-3.29,3.36s-3.34-1.45-3.36-3.29c-.02-1.84,1.45-3.34,3.29-3.36,1.83,0,3.32,1.46,3.36,3.29Z"/><path id="Path_16937" class="cls-3" d="m22.93,26.61c.01,1.84-1.46,3.34-3.3,3.35-1.84.01-3.34-1.46-3.35-3.3-.01-1.84,1.46-3.34,3.3-3.35,0,0,0,0,0,0,1.83,0,3.31,1.47,3.35,3.3Z"/></g></g></g></g></svg>