<?xml version="1.0" encoding="UTF-8"?><svg id="Layer_1" xmlns="http://www.w3.org/2000/svg" xmlns:xlink="http://www.w3.org/1999/xlink" viewBox="0 0 209 203"><defs><style>.cls-1{fill:none;}.cls-2{clip-path:url(#clippath);}.cls-3{fill:#123a5f;}</style><clipPath id="clippath"><rect class="cls-1" width="209" height="203"/></clipPath></defs><g class="cls-2"><g id="Mask_Group_162"><g id="Acquaintech_Mobile_Development"><path id="Path_16900" class="cls-3" d="m161.03,171.67c.63-3.25,1.23-6.53,2.17-9.7.49-1.18,1.41-2.15,2.56-2.7,2.89-1.43,5.97-2.49,8.91-3.83,1.32-.74,2.94-.68,4.19.16,1.72,1.11,3.4,2.29,5.2,3.25.69.24,1.45.16,2.07-.22,1.18-.9,2.3-1.88,3.36-2.92-1.52-2.38-2.77-4.41-4.11-6.38-.94-1.36-1.01-3.14-.16-4.57,1.28-2.73,2.45-5.53,3.48-8.37.41-1.6,1.72-2.82,3.35-3.11,2.34-.45,4.66-1.04,7.05-1.58v-5.82c-2.13-.47-4.3-1.01-6.49-1.4-2.01-.25-3.63-1.75-4.05-3.73-.77-2.56-1.8-5.03-3.06-7.39-1.13-2.08-1.14-3.79.25-5.67,1.06-1.41,2-2.91,2.81-4.48.26-.69.18-1.45-.22-2.07-2.91-3.36-2.95-3.33-6.67-.94-.71.46-1.46.87-2.13,1.38-1.87,1.44-3.62,1.27-5.67.16-2.29-1.25-4.7-2.25-7.2-2.99-2.06-.4-3.63-2.09-3.86-4.18-.35-2.14-.89-4.25-1.36-6.39h-2.82v20.06c1.8.25,3.58.59,5.34,1.03,7.76,2.34,12.73,7.52,14.37,15.42,1.69,8.2-1.07,15-7.55,20.28-.11.09-.23.17-.34.26-2.01,1.42-4.02,1.27-5.24-.38-1.19-1.63-.87-3.48,1.07-4.95,2.94-2.14,4.94-5.34,5.57-8.93,1.49-7.97-5.17-15.89-13.37-15.61v69.63c0,11.32-7.04,18.36-18.37,18.36h-71.82c-11.18,0-18.29-7.08-18.29-18.22v-63.13c-1.99,0-3.68,0-5.37,0-1.78.16-3.38-1.1-3.65-2.86-.45-1.99-.87-4-1.31-5.99-.06-.28-.15-.54-.21-.82-.46-1.88-7.16-4.6-8.81-3.57-1.91,1.2-3.82,2.42-5.72,3.63-1.48,1.13-3.59.9-4.78-.54-2.5-2.5-4.99-5-7.49-7.49-1.43-1.19-1.65-3.31-.5-4.78.23-.36.45-.71.67-1.07,1.22-1.97,3.22-3.88,3.42-5.96.2-1.97-1.43-4.17-2.38-6.2-.31-.58-.84-1.02-1.47-1.22-2.24-.61-4.52-1.09-6.8-1.58-1.92-.22-3.31-1.96-3.09-3.88,0,0,0,0,0,0,.02-3.39-.02-6.78.01-10.17.02-2.39.83-3.38,3.23-3.97,1.99-.49,3.99-.88,5.98-1.35,2.45-.57,5.17-7.17,3.83-9.26-1.14-1.78-2.29-3.56-3.43-5.34-1.14-1.47-.91-3.59.52-4.78,2.49-2.51,4.99-5,7.46-7.52,1.24-1.49,3.45-1.7,4.95-.47,1.89,1.24,3.76,2.51,5.73,3.6.71.3,1.51.35,2.25.15.8-.17,1.5-.88,2.31-1,3.36-.54,4.55-2.73,4.82-5.83.16-1.4.47-2.78.91-4.13.45-1.73,2.17-2.79,3.92-2.41,1.76.34,2.91,2.04,2.57,3.8,0,0,0,.01,0,.02-.66,3.61-1.37,7.21-2.35,10.74-.48,1.06-1.35,1.9-2.42,2.35-2.97,1.44-6.03,2.71-9.15,3.8-1.29.39-2.68.33-3.93-.17-1.86-.8-3.44-2.21-5.24-3.17-.68-.27-1.45-.22-2.08.14-1.21.89-2.36,1.85-3.45,2.88,1.49,2.33,2.68,4.32,4,6.21,1.08,1.44,1.18,3.39.25,4.94-1.28,2.66-2.42,5.39-3.4,8.17-.42,1.67-1.8,2.94-3.5,3.22-2.28.44-4.54,1.01-6.89,1.55v5.77c2.45.57,4.83,1.16,7.24,1.66,1.48.3,2.66,1.4,3.05,2.86,1.11,2.96,2.33,5.88,3.66,8.75.75,1.31.69,2.94-.15,4.19-1.11,1.71-2.29,3.4-3.25,5.2-.28.68-.21,1.45.17,2.07,2.91,3.4,2.95,3.37,6.67.99.49-.28.96-.58,1.41-.92,2.32-1.97,4.55-1.86,7.14-.27,2.09,1.17,4.32,2.06,6.64,2.67,1.92.38,3.38,1.95,3.63,3.89.38,2.21.93,4.39,1.42,6.63h2.8v-20.04c-1.78-.25-3.54-.59-5.28-1.02-7.76-2.33-12.75-7.49-14.41-15.39-1.72-8.2,1.04-15,7.52-20.28.64-.55,1.39-.96,2.2-1.19,1.78-.43,3.56.66,3.99,2.44.26,1.07-.03,2.19-.77,3-.55.54-1.15,1.04-1.78,1.5-4.18,3.49-5.87,9.14-4.3,14.35,1.62,5.2,6.16,8.94,11.57,9.55.4.04.81,0,1.4,0V18.31c0-11.21,7.07-18.31,18.22-18.31h72.04c11.15,0,18.22,7.09,18.23,18.28v63.08c1.79,0,3.4-.02,5.01,0,2.51.03,3.56.86,4.14,3.33.5,2.13.92,4.27,1.41,6.41.4,1.71,7.18,4.53,8.66,3.6,1.91-1.19,3.82-2.41,5.7-3.65,1.51-1.22,3.72-1,4.96.49,2.44,2.45,4.88,4.91,7.35,7.33,1.52,1.21,1.78,3.42.58,4.95-1.15,1.78-2.29,3.57-3.43,5.35-.2.29-.39.59-.55.9-.57,1.17,2.54,7.89,3.8,8.19,2.2.52,4.4.98,6.59,1.52,2.39.59,3.2,1.6,3.22,3.99.03,3.39,0,6.78.01,10.17.21,1.93-1.17,3.67-3.1,3.89-2.21.47-4.42.93-6.58,1.56-.72.28-1.32.8-1.73,1.46-.48.75-.51,1.82-1.03,2.53-1.91,2.62-1.08,4.72.62,7.13,4.18,5.92,4.09,5.77-1.05,10.83-1.56,1.53-3.07,3.12-4.63,4.65-1.74,1.69-3.02,1.8-5.11.53-.36-.22-.71-.46-1.06-.69-3.54-2.44-8.12-2.78-11.99-.91-.58.32-1.01.86-1.19,1.49-.57,2.18-.96,4.41-1.48,6.6m-15.9-71.33V18.44c0-7.69-3.95-11.66-11.56-11.66h-71.81c-7.52,0-11.55,4-11.55,11.46v166.91c0,7.45,4.03,11.45,11.56,11.46h71.6c7.8,0,11.76-3.93,11.76-11.68v-83.24h0Z"/><path id="Path_16901" class="cls-3" d="m172.07,30.77c-.14-1.86,1.26-3.49,3.13-3.62,1.86-.14,3.49,1.26,3.62,3.13,0,.11.01.22,0,.33-.04,1.98-1.63,3.59-3.61,3.65-1.76-.01-3.17-1.45-3.16-3.21,0-.09,0-.17.01-.26h0Z"/><path id="Path_16902" class="cls-3" d="m172.07,44.28c-.11-1.87,1.31-3.47,3.18-3.58,1.87-.11,3.47,1.31,3.58,3.18,0,.11,0,.21,0,.32-.07,1.9-1.55,3.45-3.45,3.6-1.77.07-3.26-1.32-3.32-3.09,0-.14,0-.29.01-.43Z"/><path id="Path_16903" class="cls-3" d="m172.07,57.82c-.11-1.87,1.32-3.46,3.18-3.57,1.87-.11,3.46,1.32,3.57,3.18,0,.11,0,.22,0,.32-.07,1.9-1.56,3.44-3.46,3.59-1.77.06-3.25-1.31-3.31-3.08,0-.15,0-.3.01-.45Z"/><path id="Path_16904" class="cls-3" d="m29.68,145.35c-.11-1.9,1.35-3.53,3.25-3.64.03,0,.05,0,.08,0,1.86,0,3.38,1.47,3.42,3.33.05,2-1.54,3.66-3.54,3.71-1.71.07-3.16-1.26-3.23-2.98,0-.14,0-.28.01-.42h0Z"/><path id="Path_16905" class="cls-3" d="m29.68,158.92c-.11-1.9,1.34-3.54,3.25-3.65.03,0,.05,0,.08,0,1.86,0,3.38,1.47,3.44,3.32.05,2-1.53,3.67-3.53,3.72-1.71.07-3.16-1.26-3.24-2.97,0-.14,0-.28.01-.42h0Z"/><path id="Path_16906" class="cls-3" d="m29.68,172.34c-.07-1.87,1.39-3.44,3.26-3.51,1.87-.07,3.44,1.39,3.51,3.26,0,.06,0,.13,0,.19-.02,2-1.66,3.61-3.66,3.58,0,0,0,0-.01,0-1.72,0-3.12-1.4-3.12-3.12,0-.14,0-.27.03-.4h0Z"/><path id="Path_16907" class="cls-3" d="m78.56,101.68c3.66,3.67,7.23,7.08,10.57,10.69.92,1.01,1.4,2.34,1.34,3.7-.41,2.77-3.71,3.38-5.93,1.2-3.63-3.56-7.19-7.18-10.78-10.77-4.65-4.65-4.65-4.97-.04-9.58,3.59-3.59,7.17-7.2,10.78-10.77,1.78-1.75,3.76-1.86,5.21-.37s1.29,3.42-.49,5.22c-3.47,3.51-6.97,6.98-10.67,10.67h0Z"/><path id="Path_16908" class="cls-3" d="m130.04,101.71c-3.71-3.69-7.26-7.11-10.65-10.68-.88-.87-1.38-2.04-1.4-3.28.26-1.19,1.08-2.18,2.2-2.67,1.27-.23,2.57.11,3.57.92,3.77,3.5,7.35,7.22,10.99,10.86,4.64,4.64,4.65,5,.06,9.59-3.59,3.59-7.17,7.2-10.79,10.77-1.67,1.65-3.41,1.83-4.91.65-1.71-1.35-1.75-3.54.03-5.34,3.52-3.56,7.1-7.06,10.89-10.83h0Z"/><path id="Path_16909" class="cls-3" d="m101.14,118.63c-2.68-.07-4.06-2.12-3.42-4.69,1.96-7.92,3.94-15.84,5.93-23.76.24-.96.42-1.93.72-2.87.46-1.8,2.28-2.89,4.09-2.47,1.81.43,2.92,2.25,2.49,4.05,0,0,0,.02,0,.03-2.21,9.02-4.46,18.03-6.75,27.04-.29,1.48-1.54,2.57-3.04,2.67h0Z"/><path id="Path_16910" class="cls-3" d="m104.22,20.34c-3.18,0-6.36.02-9.53,0-2.47-.02-4-1.37-3.97-3.42s1.53-3.33,4.05-3.34c6.36-.02,12.71-.02,19.06,0,2.47.01,4,1.36,3.97,3.42-.03,2.04-1.55,3.32-4.05,3.34-3.18.02-6.36,0-9.53,0h0Z"/></g></g></g></svg>