<?xml version="1.0" encoding="UTF-8"?><svg id="Layer_1" xmlns="http://www.w3.org/2000/svg" xmlns:xlink="http://www.w3.org/1999/xlink" viewBox="0 0 101 101.27"><defs><style>.cls-1{fill:none;}.cls-2{clip-path:url(#clippath);}.cls-3{fill:#123a5f;}</style><clipPath id="clippath"><rect class="cls-1" y=".27" width="101" height="101"/></clipPath></defs><g class="cls-2"><g id="Mask_Group_160"><g id="Acquaintech_Industry-Specific_Experience-"><path id="Path_16882" class="cls-3" d="m51.31,0c.9.3,1.77.69,2.59,1.15,2.87,1.94,3.62,5.84,1.68,8.71-.63.93-1.5,1.68-2.52,2.16-.52.18-.85.7-.77,1.25.03,2.7.02,5.4.01,8.1,0,1.46-.74,2.34-1.94,2.36-1.24.02-2.01-.88-2.01-2.39,0-2.73.02-5.47-.02-8.2-.02-.38-.21-.74-.51-.97-3.22-1.39-4.7-5.12-3.31-8.34.79-1.82,2.38-3.17,4.31-3.65.11-.05.22-.11.32-.19h2.18Zm-.99,8.7c1.31,0,2.37-1.05,2.37-2.36,0-1.31-1.05-2.37-2.36-2.37-1.3,0-2.36,1.04-2.37,2.34,0,1.31,1.05,2.38,2.36,2.39h0Z"/><path id="Path_16883" class="cls-3" d="m24.21,17.6h11.04c1.77,0,2.44.67,2.44,2.45v28.54h10.65v-1c0-2.57,0-5.14,0-7.71-.17-1.09.58-2.11,1.67-2.28,1.09-.17,2.11.58,2.28,1.67.03.2.03.41,0,.62.01,2.57,0,5.14,0,7.71v1.02h10.48v-1.03c0-4.05.03-8.11-.02-12.16-.04-1.02.3-2.02.96-2.8,3.04-3.73,6.01-7.51,9.04-11.25.44-.4.53-1.05.22-1.56-1.43-3.18-.02-6.91,3.16-8.34,2.2-.99,4.78-.64,6.63.91,2.27,1.87,2.94,5.07,1.61,7.7-1.29,2.65-4.27,4.02-7.12,3.29-.55-.21-1.17,0-1.47.51-2.84,3.59-5.72,7.16-8.57,10.74-.26.29-.42.65-.47,1.03-.03,4.28-.02,8.57-.02,13.01h.97c2.87,0,5.74.03,8.6-.03.53-.03,1.03-.26,1.41-.63,3.71-3.93,7.36-7.92,11.06-11.85.45-.46,1.02-.78,1.65-.94.75-.19,1.52.22,1.77.95.16.64.16,1.32,0,1.96-.06.34-.46.62-.73.91-3.6,3.89-7.21,7.78-10.83,11.66-.46.46-.7,1.1-.67,1.75.02,15.36.02,30.72.01,46.07,0,2.11-.6,2.72-2.69,2.72H23.31c-2.04,0-2.66-.62-2.66-2.65,0-15.39,0-30.78.02-46.17.02-.65-.23-1.28-.69-1.74-3.65-3.89-7.28-7.81-10.89-11.74-.35-.35-.63-.75-.84-1.2-.3-.84.02-1.78.77-2.26.81-.53,1.88-.39,2.52.32,1.46,1.52,2.88,3.08,4.32,4.62,2.38,2.56,4.74,5.13,7.13,7.68.22.27.52.46.87.53,3.26.04,6.51.02,9.82.02v-27.03h-9.47c0,.63,0,1.31,0,1.98.15,1.11-.63,2.13-1.73,2.28-.17.02-.34.02-.5,0-2.73.02-5.47.02-8.21,0-1.08.14-2.07-.63-2.21-1.71-.02-.16-.02-.32,0-.48-.02-2.77-.02-5.54,0-8.31-.12-1.07.64-2.03,1.71-2.16.14-.02.29-.02.43,0,2.8-.02,5.6-.02,8.4,0,1.08-.08,2.03.73,2.11,1.81,0,.1,0,.19,0,.29.02.72,0,1.43,0,2.25h0Zm51.79,35.1H24.67v44.52h51.33v-44.52ZM15.57,17.25v4.62h4.63v-4.62h-4.63Zm63.14,2.35c1.31.01,2.39-1.04,2.4-2.35-.02-1.31-1.09-2.37-2.4-2.38-1.27.02-2.3,1.05-2.32,2.33-.05,1.28.95,2.35,2.23,2.4.03,0,.06,0,.09,0h0Z"/><path id="Path_16884" class="cls-3" d="m50.36,32.63c-1.09.02-1.99-.84-2.01-1.92,0-.02,0-.03,0-.05,0-1.09.89-1.97,1.98-1.96,1.09,0,1.97.89,1.96,1.98,0,1.07-.86,1.93-1.93,1.96h0Z"/><path id="Path_16885" class="cls-3" d="m67.05,74.95c-2.05-1.65-4-3.2-5.92-4.8-.47-.35-.83-.82-1.07-1.36-.3-.81.02-1.72.77-2.16.72-.53,1.72-.47,2.38.13,2.03,1.62,4.05,3.26,6.08,4.89.72.58,1.46,1.14,2.14,1.75.85.63,1.03,1.83.41,2.68-.11.15-.25.29-.41.41-2.74,2.27-5.5,4.5-8.3,6.7-.8.68-1.99.58-2.67-.22-.02-.03-.05-.06-.07-.09-.69-.84-.56-2.08.28-2.76.02-.02.04-.03.06-.05,1.77-1.47,3.58-2.9,5.37-4.35.28-.23.55-.46.94-.78h0Z"/><path id="Path_16886" class="cls-3" d="m33.61,74.99c2.06,1.66,4.02,3.21,5.94,4.82.46.36.82.83,1.04,1.37.28.78-.03,1.65-.73,2.08-.7.56-1.71.53-2.38-.07-2.77-2.22-5.55-4.45-8.29-6.71-.83-.61-1.02-1.78-.41-2.62.11-.15.24-.28.39-.39,2.76-2.29,5.55-4.55,8.37-6.77.8-.66,1.98-.55,2.64.25.03.04.06.07.08.11.67.84.53,2.06-.31,2.73,0,0,0,0,0,0-1.84,1.54-3.73,3.03-5.59,4.55-.22.18-.44.38-.75.64h0Z"/><path id="Path_16887" class="cls-3" d="m55.91,68.5c-.11.36-.25.71-.42,1.04-2.31,3.91-4.64,7.81-6.97,11.71-.44,1-1.61,1.46-2.62,1.02-1-.44-1.46-1.61-1.02-2.62.06-.15.15-.28.24-.41,2.33-3.93,4.67-7.86,7.02-11.79.4-.88,1.38-1.34,2.31-1.08.94.26,1.55,1.16,1.46,2.13h0Z"/></g></g></g></svg>