<?xml version="1.0" encoding="UTF-8"?><svg id="Layer_1" xmlns="http://www.w3.org/2000/svg" xmlns:xlink="http://www.w3.org/1999/xlink" viewBox="0 0 209 203"><defs><style>.cls-1{fill:none;}.cls-2{clip-path:url(#clippath);}.cls-3{fill:#123a5f;}</style><clipPath id="clippath"><rect class="cls-1" width="209" height="203"/></clipPath></defs><g class="cls-2"><g id="Mask_Group_163"><g id="Artwork_201"><g id="Group_11654"><path id="Path_16911" class="cls-3" d="m9.06,175.62c1.35-3.23,3.79-4.55,7.25-4.22,1.35.13,2.72.02,4.34.02v-97.34c0-6.3,3.43-11.01,9.16-12.47,1.33-.3,2.7-.43,4.07-.4,6.41-.04,12.82-.02,19.23-.02h2c.14-.29.29-.46.28-.61-.45-4.27,1.67-6.79,5.51-8.2,1.04-.42,2.04-.92,3-1.5.54-.33.93-.87,1.06-1.49h-8.51c-3.92,0-7.84.02-11.76-.01-.85-.14-1.69.32-2.04,1.12-2.19,4.19-7.35,5.81-11.54,3.62-4.19-2.19-5.81-7.35-3.62-11.54,1.11-2.13,3.07-3.69,5.39-4.31,3.88-.98,7.94.81,9.83,4.34.29.49.91,1.12,1.38,1.13,7.34.07,14.68.05,22.32.05-1.63-4.5-3.92-9.01,1.61-12.5-3.62-3.62-7.03-7.06-10.49-10.44-.45-.32-.99-.48-1.54-.48-.93-.07-1.87.03-2.8-.03-2.4-.17-4.28-.02-5.79,2.6-1.84,3.18-6.18,4-9.65,2.64-3.47-1.36-5.68-4.79-5.48-8.51.25-3.72,2.86-6.86,6.47-7.79,3.61-.99,7.44.57,9.33,3.81.53,1.18,1.77,1.88,3.06,1.7,9.37-.07,7.77-.45,14.11,5.84,2.16,2.14,4.26,4.34,6.3,6.42.36-.09.52-.08.58-.15,2.7-3.41,6.02-3.83,9.81-2.05.42.12.83.27,1.23.43,2.84,1.75,5.2-.16,7.67-1.05.38-.14.62-.74.84-1.18.83-1.6,1.65-3.2,2.43-4.83.9-2.13,3.02-3.49,5.33-3.44,3.48-.06,6.97-.06,10.46,0,2.31-.07,4.44,1.28,5.35,3.41.41.69.77,1.42,1.06,2.17.92,3.23,3.35,4.71,6.32,5.57.52.14,1.06.13,1.58-.01,1.5-.41,2.97-.91,4.42-1.48,3.08-1.27,5.71-.75,7.89,1.8.24.28.47.58.85,1.05,1.06-1.03,1.98-1.91,2.89-2.81,2.47-2.46,4.96-4.9,7.38-7.4,1.42-1.52,3.42-2.36,5.5-2.32,1.93,0,3.86-.05,5.79.02.87.11,1.69-.38,2.01-1.19,1.87-3.63,6.08-5.4,9.98-4.2,3.84,1.14,6.39,4.76,6.17,8.75-.3,4.06-3.38,7.37-7.42,7.97-3.56.51-7.05-1.29-8.71-4.49-.4-.81-1.23-1.32-2.13-1.32-4.68-.74-8.22.83-11.14,4.55-2,2.26-4.13,4.4-6.39,6.4,5.55,3.51,3.33,8,1.65,12.54h6.61c4.11,0,8.22-.08,12.32.03,2.47.07,4.36-.08,5.93-2.65,1.93-3.17,6.27-3.94,9.7-2.55,4.4,1.82,6.49,6.86,4.67,11.26-1.05,2.54-3.24,4.42-5.91,5.08-3.7.91-7.55-.78-9.39-4.12-.43-1.02-1.49-1.62-2.58-1.47-6.04.05-12.07.02-18.11.02h-1.8l-.2.42c.43.43.9.81,1.4,1.15,1.35.77,2.74,1.47,4.16,2.1,2.76.95,4.49,3.68,4.16,6.58-.02.43.05.86.09,1.56h2.02c6.47,0,12.94-.01,19.42,0,8.29.03,13.25,4.98,13.25,13.24,0,31.43,0,62.86,0,94.29v2.7c1.88,0,3.66-.01,5.44,0,3.91.03,6.16,2.24,6.13,6.14.09,2.48-.04,4.97-.38,7.43-1.12,5.31-5.73,9.16-11.15,9.34-.5.02-1,.03-1.49.03-55.02,0-110.03,0-165.05.02-4.49,0-8.22-1.41-10.79-5.13-.92-1.6-1.7-3.29-2.32-5.03v-8.59Zm5.66,1.4c-.09,2.05-.07,4.09.04,6.14.17,2.25,1.63,4.19,3.74,4.97,1.35.45,2.77.66,4.19.61,54.64.03,109.29.04,163.93.02.62,0,1.25,0,1.87-.03,2.72-.02,5.09-1.87,5.76-4.5.34-2.36.51-4.74.52-7.12-.72-.05-1.03-.09-1.34-.09-21.04,0-42.07.02-63.11.05-1.01.1-1.95.57-2.64,1.31-2.74,2.97-6.64,4.58-10.67,4.41-8.15-.11-16.31-.13-24.46,0-4.4.07-8.07-1.24-10.95-4.56-.77-.89-1.93-1.36-3.11-1.25-8.71.05-17.43.03-26.14.01-.81.03-1.61-.05-2.39-.25-1.4-.4-2.22-1.86-1.82-3.27.03-.11.07-.21.11-.31.61-1.55,1.88-1.78,3.35-1.77,8.9.02,17.8.14,26.7-.06,3.12-.07,5.54.62,7.47,3.12,1.59,2.07,3.82,2.74,6.43,2.72,7.72-.08,15.44-.2,23.15.04,3.93.12,7.09-.84,9.48-3.99,1.06-1.33,2.72-2.03,4.41-1.85,17.18.05,34.35.03,51.53.03h2.3v-97.15c0-4.94-2.52-7.48-7.47-7.48-47.3,0-94.6,0-141.9,0-4.95,0-7.45,2.55-7.45,7.5,0,31.68,0,63.36,0,95.04v2.1c3.95,0,7.61-.03,11.28.01,1.87.02,2.92,1.01,2.97,2.64.08,1.52-1.08,2.82-2.6,2.9-.06,0-.11,0-.17,0-.62.04-1.24.05-1.87.03-6.98,0-13.95,0-21.16,0h0ZM118.91,61.12c-.12-.58-.16-.94-.26-1.29-1.92-6.44-7.56-10.45-14.66-10.44-2.35,0-3.62-.98-3.6-2.79.02-1.71,1.28-2.73,3.48-2.8,9.71-.4,18.32,6.21,20.45,15.69.33,1.48.92,1.72,2.22,1.71,6.6-.05,13.19-.02,19.79-.02h1.73c.65-1.9.07-2.93-1.56-3.53-.92-.38-1.81-.82-2.68-1.3-5.34-2.64-8.22-9.1-5.95-14.64,1.48-3.62.61-5.68-1.97-8.45-3.05-3.27-5.79-4.34-9.68-2.15-.43.25-.92.4-1.42.43-1.21.01-2.59.26-3.62-.2-7.51-3.39-6.18-1.01-10.14-9.07-.13-.21-.24-.44-.33-.67-.32-1.09-1.08-1.33-2.14-1.3-2.3.12-4.6.11-6.9-.02-1.86-.15-2.75.55-3.5,2.2-.94,2.07-1.81,4.69-3.53,5.78-3.67,2.33-7.68,5.04-12.44,2.52-3.24-1.71-5.33-.72-7.98,1.74-3.37,3.13-4.64,5.91-2.4,10.15.62,1.41.74,2.99.32,4.47-1.29,4.68-3.44,8.82-8.68,10.23-.24.06-.44.24-.67.32-1.19.19-2,1.31-1.81,2.51.04.27.14.53.28.77.11.07.23.12.36.15,7.34.02,14.68.06,22.03,0,.42,0,1.1-.71,1.21-1.19.71-3.23,2.17-6.25,4.27-8.81.72-1.11,2.21-1.43,3.32-.72.81.68,1.36,1.63,1.55,2.68.12.62-.54,1.46-.99,2.11-1.32,1.74-2.18,3.77-2.53,5.93h28.45ZM40.78,14.63c-1.63.02-2.93,1.36-2.92,2.98.07,1.62,1.37,2.91,2.98,2.97,1.66-.01,2.99-1.37,2.97-3.03,0-.03,0-.06,0-.1-.04-1.6-1.37-2.87-2.97-2.83-.02,0-.04,0-.07,0Zm127.7,5.95c1.62-.06,2.92-1.35,2.98-2.97,0-1.64-1.32-2.98-2.96-2.98-.05,0-.09,0-.14,0-1.6.02-2.87,1.34-2.85,2.93,0,.03,0,.05,0,.08.03,1.62,1.34,2.93,2.97,2.94h0ZM38.05,46.5c-.07-1.62-1.4-2.9-3.02-2.9-1.62.01-2.92,1.33-2.91,2.95,0,.07,0,.13,0,.2.06,1.59,1.39,2.83,2.98,2.78.03,0,.06,0,.09,0,1.62-.06,2.9-1.4,2.86-3.02Zm136.18-2.89c-1.62.03-2.93,1.33-2.96,2.95,0,1.64,1.33,2.97,2.97,2.97.05,0,.09,0,.14,0,1.64-.07,2.9-1.46,2.83-3.09-.07-1.59-1.38-2.84-2.97-2.83Z"/><path id="Path_16912" class="cls-3" d="m104.74,72.8h67.95c3.7,0,4.39.69,4.39,4.31v84c0,3.51-.78,4.3-4.27,4.3-45.42,0-90.85,0-136.27,0-3.51,0-4.3-.79-4.3-4.27v-84.19c0-3.39.76-4.15,4.17-4.15,22.77,0,45.55,0,68.33,0Zm-66.76,5.71v81.18h133.4v-81.18H37.98Z"/><path id="Path_16913" class="cls-3" d="m127.79,101.61c0,1.54.04,2.83,0,4.13-.08,1.89-1.2,3.06-2.84,3.04s-2.71-1.2-2.74-3.1c-.03-2.24-.04-4.48,0-6.72-.15-1.46.91-2.77,2.38-2.92.17-.02.35-.02.52,0,2.61-.06,5.23,0,7.84-.03,2.31-.02,3.73-1.21,3.72-3.04,0-1.85-1.37-2.95-3.75-2.95-9.15-.01-18.3-.01-27.45,0-2.43,0-3.75,1.04-3.79,2.9-.04,1.9,1.39,3.07,3.84,3.09,2.3.02,4.6,0,6.91,0,2.87.01,3.76.9,3.76,3.81,0,14.56,0,29.13,0,43.69-.02.62-.01,1.24.03,1.87.02,1.52,1.26,2.74,2.78,2.73,1.51.17,2.88-.9,3.09-2.4.1-.61.14-1.24.1-1.86,0-8.09,0-16.18.01-24.27,0-2.62,2.24-4.2,4.13-2.85.81.64,1.31,1.59,1.4,2.62.1,8.71.15,17.43.01,26.14-.14,4.73-4.08,8.45-8.81,8.31-4.66-.14-8.36-3.98-8.31-8.64-.04-13.69-.02-27.38-.02-41.07v-2.49c-2.12,0-4.09.07-6.05-.01-4.74-.05-8.54-3.94-8.49-8.68.04-3.79,2.57-7.11,6.22-8.16.65-.2,1.33-.3,2.02-.31,9.9-.02,19.79-.06,29.68,0,3.68.04,6.89,2.49,7.91,6.02,1.14,3.43-.11,7.2-3.09,9.26-1.71.95-3.59,1.57-5.54,1.81-1.82.17-3.66.19-5.49.07Z"/><path id="Path_16914" class="cls-3" d="m90.08,119.14c0,8.64.03,17.29-.01,25.93.05,3.87-2.5,7.29-6.21,8.37-3.58,1.1-7.45-.33-9.45-3.5-.88-1.42-1.37-3.04-1.44-4.7-.1-17.41-.09-34.82-.05-52.24,0-4.74,3.85-8.57,8.59-8.57,4.74,0,8.57,3.85,8.57,8.59.07,8.71.02,17.41.02,26.12Zm-11.59-.09v23.87c0,.81-.04,1.62.03,2.42,0,1.51,1.22,2.74,2.73,2.77,1.56.15,2.97-.97,3.17-2.52.06-.49.08-.99.06-1.49,0-16.66,0-33.32,0-49.98.03-.74-.06-1.48-.27-2.19-.39-1.32-1.72-2.12-3.07-1.86-1.36.07-2.47,1.14-2.59,2.5-.06.56-.08,1.12-.05,1.68,0,8.27,0,16.54,0,24.81h0Z"/></g></g></g></g></svg>