<?xml version="1.0" encoding="utf-8"?>
<!-- Generator: Adobe Illustrator 27.3.1, SVG Export Plug-In . SVG Version: 6.00 Build 0)  -->
<svg version="1.1" id="Layer_1" xmlns="http://www.w3.org/2000/svg" xmlns:xlink="http://www.w3.org/1999/xlink" x="0px" y="0px"
	 viewBox="0 0 226.77 130.39" style="enable-background:new 0 0 226.77 130.39;" xml:space="preserve">
<style type="text/css">
	.st0{fill:#15355C;}
	.st1{fill:#4781A4;}
</style>
<g>
	<path class="st0" d="M20.14,108.58l-4.42-0.57c-1.62,0.57-3.63,0.83-5.63,0.83c-4.46,0-8.88-1.4-9.6-4.12
		c-0.34-1.28-0.49-2.8-0.49-4.35c0-1.51,0.15-3.06,0.49-4.38c0.68-2.76,5.1-4.16,9.56-4.16c4.46,0,8.92,1.4,9.64,4.23
		c0.3,1.17,0.45,2.57,0.45,3.97V108.58z M15.72,100.31c0-1.21-0.08-2.42-0.27-3.44c-0.42-2.27-2.87-3.4-5.4-3.4
		c-2.46,0-4.99,1.13-5.37,3.36c-0.19,1.06-0.26,2.31-0.26,3.55c0,1.25,0.07,2.49,0.26,3.55c0.38,2.19,2.91,3.32,5.4,3.32
		c2.08,0,4.16-0.38,5.63-1.21V100.31z"/>
	<path class="st0" d="M42.78,105.63c-1.4,2.19-5.25,3.21-9.11,3.21c-4.46,0-8.96-1.4-9.64-4.12c-0.34-1.28-0.49-2.8-0.49-4.35
		c0-1.51,0.15-3.06,0.49-4.38c0.68-2.76,5.1-4.16,9.56-4.16c3.51,0,7.03,0.87,8.73,2.64l-1.74,1.17c-1.32-1.47-4.16-2.23-6.95-2.23
		c-2.49,0-5.03,1.13-5.4,3.4c-0.19,1.06-0.27,2.3-0.27,3.55c0,1.25,0.08,2.49,0.27,3.55c0.38,2.19,2.91,3.33,5.4,3.33
		c3.1,0,6.2-0.87,7.29-2.68L42.78,105.63z"/>
	<path class="st0" d="M65.26,100.46v15.42l-4.42-0.57v-7.18c-1.66,0.57-3.63,0.83-5.63,0.83c-4.46,0-8.88-1.4-9.6-4.12
		c-0.34-1.28-0.49-2.8-0.49-4.35c0-1.51,0.15-3.06,0.49-4.38c0.68-2.76,5.14-4.16,9.56-4.16c2.08,0,4.12,0.3,5.82,0.91l4.27-0.57
		V100.46z M60.84,100.46v-0.04c0-1.21-0.08-2.42-0.27-3.44c-0.42-2.31-2.91-3.44-5.4-3.44c-2.49,0-4.99,1.13-5.37,3.4
		c-0.19,1.06-0.26,2.3-0.26,3.55c0,1.25,0.07,2.49,0.26,3.51c0.38,2.19,2.91,3.36,5.4,3.36c2.08,0,4.16-0.42,5.63-1.21V100.46z"/>
	<path class="st0" d="M84.72,92.6h4.42v15.65v0.26l-4.23-0.57c-1.7,0.64-3.78,0.91-5.86,0.91c-4.42,0-8.88-1.4-9.56-4.12
		c-0.34-1.29-0.53-2.8-0.53-4.35v-8.05l4.42,0.57v7.48c0.04,1.25,0.11,2.49,0.3,3.55c0.38,2.19,2.87,3.33,5.37,3.33
		c2.08,0,4.19-0.38,5.67-1.21v-7.33V92.6z"/>
	<path class="st0" d="M112.91,108.58l-4.42-0.57c-1.62,0.57-3.63,0.83-5.63,0.83c-4.46,0-8.88-1.4-9.6-4.12
		c-0.34-1.28-0.49-2.8-0.49-4.35c0-1.51,0.15-3.06,0.49-4.38c0.68-2.76,5.1-4.16,9.56-4.16c4.46,0,8.92,1.4,9.64,4.23
		c0.3,1.17,0.45,2.57,0.45,3.97V108.58z M108.49,100.31c0-1.21-0.08-2.42-0.27-3.44c-0.42-2.27-2.87-3.4-5.4-3.4
		c-2.46,0-4.99,1.13-5.37,3.36c-0.19,1.06-0.26,2.31-0.26,3.55c0,1.25,0.07,2.49,0.26,3.55c0.38,2.19,2.91,3.32,5.4,3.32
		c2.08,0,4.16-0.38,5.63-1.21V100.31z"/>
	<path class="st0" d="M121.19,88.74c-0.34,1.55-4.72,1.51-5.1,0.08c-0.15-0.68-0.15-1.62,0-2.34c0.38-1.47,4.72-1.47,5.1,0.04
		C121.38,87.19,121.38,88.1,121.19,88.74 M116.43,108.58V92.3l4.42,0.6v15.68H116.43z"/>
	<path class="st0" d="M128.86,108.58h-4.42V92.56l3.74,0.49c1.78-0.75,4.04-1.1,6.35-1.1c4.42,0,8.88,1.4,9.56,4.12
		c0.34,1.28,0.49,2.83,0.49,4.35v8.16h-4.42v-8.16c0-1.25-0.07-2.49-0.26-3.51c-0.38-2.19-2.87-3.36-5.37-3.36
		c-2.12,0-4.19,0.41-5.67,1.21v7.37V108.58z"/>
	<polygon class="st0" points="154.18,85.61 154.18,92.56 158.9,92.56 158.9,94.26 154.18,94.26 154.18,108.02 154.18,108.58 
		149.76,108.58 149.76,94.26 146.96,94.26 146.96,92.56 149.76,92.56 149.76,85.04 	"/>
	<path class="st0" d="M165.82,103.93c0.38,2.19,2.91,3.33,5.4,3.33c3.1,0,6.2-0.87,7.29-2.68l1.85,1.06
		c-1.36,2.15-5.18,3.21-8.96,3.21c-4.54,0-9.07-1.32-9.79-4.12c-0.34-1.28-0.49-2.8-0.49-4.35c0-1.51,0.15-3.06,0.49-4.38
		c0.68-2.76,5.1-4.16,9.56-4.16c4.42,0,8.96,1.4,9.64,4.23c0.26,1.13,0.45,2.42,0.45,3.74v1.7h-15.68
		C165.63,102.35,165.67,103.18,165.82,103.93 M176.59,96.87c-0.42-2.27-2.91-3.4-5.4-3.4c-2.46,0-4.99,1.13-5.37,3.36
		c-0.15,0.91-0.23,1.93-0.26,2.99h11.3C176.85,98.79,176.74,97.77,176.59,96.87"/>
	<path class="st0" d="M203.53,105.63c-1.4,2.19-5.25,3.21-9.11,3.21c-4.46,0-8.96-1.4-9.64-4.12c-0.34-1.28-0.49-2.8-0.49-4.35
		c0-1.51,0.15-3.06,0.49-4.38c0.68-2.76,5.1-4.16,9.56-4.16c3.51,0,7.03,0.87,8.73,2.64l-1.74,1.17c-1.32-1.47-4.16-2.23-6.95-2.23
		c-2.49,0-5.03,1.13-5.4,3.4c-0.19,1.06-0.27,2.3-0.27,3.55c0,1.25,0.08,2.49,0.27,3.55c0.38,2.19,2.91,3.33,5.4,3.33
		c3.1,0,6.2-0.87,7.29-2.68L203.53,105.63z"/>
	<path class="st0" d="M211.05,108.58h-4.42v-8.16V85.04l4.42,0.57v7.18c1.66-0.57,3.67-0.83,5.67-0.83c4.42,0,8.88,1.4,9.56,4.12
		c0.34,1.28,0.49,2.83,0.49,4.35v8.16h-4.42v-8.16c0-1.25-0.07-2.49-0.26-3.51c-0.38-2.19-2.87-3.36-5.37-3.36
		c-2.12,0-4.19,0.41-5.67,1.21v5.71v7.56V108.58z"/>
	<path class="st0" d="M16.04,130.26h-3.61v-10.43h3.51c2.19,0,3.24,1.16,3.24,2.63c0,1.37-0.87,2.14-1.87,2.42
		c1.16,0.21,2.11,1.28,2.11,2.6C19.42,129.04,18.24,130.26,16.04,130.26 M15.87,120.71h-2.39v3.73h2.43c1.42,0,2.21-0.72,2.21-1.88
		C18.12,121.44,17.37,120.71,15.87,120.71 M15.93,125.3h-2.45v4.08h2.49c1.51,0,2.4-0.76,2.4-2.01S17.42,125.3,15.93,125.3"/>
	<path class="st0" d="M32.14,130.26h-1.05v-1.43c-0.49,1.03-1.57,1.57-2.78,1.57c-1.85,0-3.31-1.13-3.31-3.52v-4.76h1.03v4.64
		c0,1.81,0.98,2.73,2.48,2.73c1.52,0,2.58-0.96,2.58-2.94v-4.43h1.05V130.26z"/>
	<path class="st0" d="M38.02,119.8c0-0.45,0.34-0.76,0.76-0.76s0.76,0.31,0.76,0.76c0,0.45-0.34,0.78-0.76,0.78
		S38.02,120.24,38.02,119.8 M38.25,122.11h1.05v8.15h-1.05V122.11z"/>
	<rect x="45.4" y="119.21" class="st0" width="1.05" height="11.05"/>
	<path class="st0" d="M52.85,122.99h-1.13v-0.88h1.13v-2.04h1.06v2.04h2.24v0.88h-2.24v5.06c0,1,0.34,1.31,1.28,1.31h0.96v0.9h-1.12
		c-1.42,0-2.18-0.58-2.18-2.21V122.99z"/>
	<path class="st0" d="M69.69,122.99h-1.13v-0.88h1.13v-0.57c0-1.75,0.82-2.58,2.88-2.58v0.9c-1.39,0-1.84,0.51-1.84,1.69v0.57h1.9
		v0.88h-1.9v7.27h-1.04V122.99z"/>
	<path class="st0" d="M81.57,130.38c-2.3,0-4.05-1.61-4.05-4.2c0-2.6,1.79-4.19,4.08-4.19c2.3,0,4.07,1.6,4.07,4.19
		C85.68,128.77,83.87,130.38,81.57,130.38 M81.57,129.47c1.54,0,3.03-1.04,3.03-3.28s-1.46-3.28-3.02-3.28c-1.55,0-3,1.04-3,3.28
		S80.02,129.47,81.57,129.47"/>
	<path class="st0" d="M92.36,130.26h-1.05v-8.15h1.05v1.45c0.45-1,1.39-1.6,2.79-1.6v1.09h-0.28c-1.36,0-2.51,0.61-2.51,2.66V130.26
		z"/>
	<path class="st0" d="M108.57,122.99h-1.13v-0.88h1.13v-2.04h1.06v2.04h2.24v0.88h-2.24v5.06c0,1,0.34,1.31,1.28,1.31h0.96v0.9
		h-1.12c-1.42,0-2.18-0.58-2.18-2.21V122.99z"/>
	<path class="st0" d="M117.32,119.21h1.04v4.28c0.52-1,1.6-1.54,2.84-1.54c1.81,0,3.25,1.14,3.25,3.52v4.78h-1.03v-4.66
		c0-1.81-0.98-2.73-2.48-2.73c-1.52,0-2.58,0.96-2.58,2.94v4.45h-1.04V119.21z"/>
	<path class="st0" d="M134.02,130.38c-2.31,0-4-1.61-4-4.19c0-2.6,1.66-4.2,4-4.2c2.39,0,3.85,1.7,3.85,3.78
		c0,0.33,0,0.54-0.03,0.82h-6.76c0.09,1.91,1.42,2.91,2.94,2.91c1.39,0,2.33-0.73,2.63-1.82h1.1
		C137.38,129.21,136.07,130.38,134.02,130.38 M131.08,125.74h5.73c0.04-1.9-1.33-2.85-2.84-2.85
		C132.5,122.89,131.2,123.84,131.08,125.74"/>
	<polygon class="st0" points="151.34,119.83 156.98,119.83 156.98,120.69 152.38,120.69 152.38,124.59 156.26,124.59 156.26,125.45 
		152.38,125.45 152.38,130.26 151.34,130.26 	"/>
	<path class="st0" d="M169.49,130.26h-1.05v-1.43c-0.49,1.03-1.57,1.57-2.78,1.57c-1.85,0-3.31-1.13-3.31-3.52v-4.76h1.03v4.64
		c0,1.81,0.98,2.73,2.48,2.73c1.52,0,2.58-0.96,2.58-2.94v-4.43h1.05V130.26z"/>
	<path class="st0" d="M175.9,122.99h-1.13v-0.88h1.13v-2.04h1.06v2.04h2.24v0.88h-2.24v5.06c0,1,0.34,1.31,1.28,1.31h0.96v0.9h-1.12
		c-1.42,0-2.18-0.58-2.18-2.21V122.99z"/>
	<path class="st0" d="M191.71,130.26h-1.05v-1.43c-0.49,1.03-1.57,1.57-2.78,1.57c-1.85,0-3.31-1.13-3.31-3.52v-4.76h1.03v4.64
		c0,1.81,0.98,2.73,2.48,2.73c1.52,0,2.58-0.96,2.58-2.94v-4.43h1.05V130.26z"/>
	<path class="st0" d="M198.88,130.26h-1.05v-8.15h1.05v1.45c0.45-1,1.39-1.6,2.79-1.6v1.09h-0.28c-1.36,0-2.51,0.61-2.51,2.66
		V130.26z"/>
	<path class="st0" d="M210.49,130.38c-2.31,0-4-1.61-4-4.19c0-2.6,1.66-4.2,4-4.2c2.39,0,3.85,1.7,3.85,3.78
		c0,0.33,0,0.54-0.03,0.82h-6.76c0.09,1.91,1.42,2.91,2.94,2.91c1.39,0,2.33-0.73,2.63-1.82h1.1
		C213.85,129.21,212.53,130.38,210.49,130.38 M207.55,125.74h5.73c0.04-1.9-1.33-2.85-2.84-2.85
		C208.97,122.89,207.67,123.84,207.55,125.74"/>
	<path class="st1" d="M134.74,44.34c-1.88,0-3.42,1.51-3.42,3.37c0,1.86,1.53,3.37,3.42,3.37c1.88,0,3.42-1.51,3.42-3.37
		C138.16,45.85,136.63,44.34,134.74,44.34"/>
	<path class="st1" d="M108.88,34.76c0-1.86-1.53-3.37-3.42-3.37c-1.88,0-3.42,1.51-3.42,3.37c0,1.86,1.53,3.37,3.42,3.37
		C107.35,38.13,108.88,36.62,108.88,34.76"/>
	<path class="st1" d="M153.99,17.64C151.36,7.37,136.78,1.63,120.65,0.3v41.24l-6.76,9.36c0.87,1.02,1.4,2.34,1.4,3.78
		c0,3.24-2.67,5.88-5.95,5.88c-3.28,0-5.96-2.64-5.96-5.88c0-3.24,2.67-5.88,5.96-5.88c0.44,0,0.88,0.05,1.29,0.14l6.22-8.61V0.07
		C115.67,0.02,114.49,0,113.31,0c-6.13,0-12.24,0.62-17.79,1.85v19.71l7.36,7.91c0.78-0.37,1.66-0.58,2.59-0.58
		c3.28,0,5.96,2.64,5.96,5.88s-2.67,5.88-5.96,5.88c-3.28,0-5.95-2.64-5.95-5.88c0-0.96,0.23-1.86,0.65-2.66l-8.45-9.08V2.81
		c-9.68,2.79-17.05,7.63-18.77,14.51c-1.44,5.51-2.07,11.97-2.07,18.27c0,6.46,0.64,12.76,2.07,18.11
		c3.03,11.34,21.7,17.17,40.52,17.17c2.5,0,4.99-0.11,7.45-0.31V60.5l8.62-9.93c-0.48-0.85-0.75-1.82-0.75-2.85
		c0-3.24,2.67-5.88,5.95-5.88c3.28,0,5.95,2.64,5.95,5.88c0,3.24-2.67,5.88-5.95,5.88c-0.85,0-1.66-0.18-2.39-0.49l-7.64,8.79v8.28
		c4.48-0.56,8.74-1.47,12.52-2.77l18.67,2.36V34.17C155.91,28.35,155.27,22.52,153.99,17.64"/>
	<path class="st1" d="M109.33,51.32c-1.88,0-3.42,1.51-3.42,3.37c0,1.86,1.53,3.37,3.42,3.37c1.88,0,3.42-1.51,3.42-3.37
		C112.75,52.83,111.22,51.32,109.33,51.32"/>
</g>
</svg>
