<?xml version="1.0" encoding="UTF-8"?><svg id="Layer_1" xmlns="http://www.w3.org/2000/svg" xmlns:xlink="http://www.w3.org/1999/xlink" viewBox="0 0 101 99"><defs><style>.cls-1{fill:none;}.cls-2{clip-path:url(#clippath);}.cls-3{fill:#123a5f;}</style><clipPath id="clippath"><rect class="cls-1" width="101" height="99"/></clipPath></defs><g class="cls-2"><g id="Mask_Group_157"><g id="Acquaintech_Scalability_Support-01"><path id="Path_16839" class="cls-3" d="m48.28,7.48c-1.3.07-2.61.13-3.91.22-.61.04-1.22.12-1.82.21-8.5,1.13-16.39,5.04-22.45,11.12-9.79,9.83-13.8,21.75-11.44,35.4,2.52,14.56,10.96,24.75,24.55,30.53,2.78,1.04,5.64,1.85,8.55,2.42,1.55.43,3.18-.35,3.81-1.83.77-1.66.05-3.64-1.61-4.41-.21-.1-.43-.17-.65-.22-1.97-.48-3.97-.86-5.88-1.49-16.4-5.38-26.14-23.48-21.65-40.16,4.55-16.9,20.72-27.56,37.94-24.55,13.25,2.32,22.04,10.25,26.47,22.95.54,1.78.95,3.59,1.23,5.43.23,1.66,1.64,2.91,3.32,2.95,1.63.03,3.03-1.15,3.28-2.76.06-.72.02-1.44-.13-2.15-3.23-19.37-19.95-33.59-39.59-33.67Zm3.27,27.85c0-4.11,0-8.23,0-12.34.07-1.84-1.37-3.39-3.21-3.45-1.84-.07-3.39,1.37-3.45,3.21,0,.09,0,.19,0,.28-.01,7.51,0,15.01,0,22.52.02.52-.18,1.03-.56,1.38-3.55,3.57-7.07,7.16-10.61,10.73-.66.6-1.08,1.43-1.17,2.33-.1,1.37.65,2.66,1.89,3.25,1.32.65,2.91.34,3.9-.75,4.07-4.11,8.13-8.22,12.18-12.35.69-.7,1.07-1.65,1.04-2.64-.02-4.06,0-8.12,0-12.18Zm19.63,35.55c-1.4-1.42-2.72-2.77-4.06-4.1-1.18-1.43-3.29-1.63-4.71-.45s-1.63,3.29-.45,4.71c.13.16.27.3.43.43,1.47,1.48,2.94,2.95,4.42,4.42,2.13,2.43,5.83,2.68,8.27.55.18-.16.36-.34.52-.52,2.85-2.81,5.69-5.63,8.53-8.45,1.92-1.9,3.84-3.78,5.74-5.7,1.31-1.29,1.33-3.4.04-4.71-.47-.48-1.07-.8-1.72-.93-1.2-.23-2.43.2-3.23,1.13-4.36,4.33-8.72,8.66-13.1,12.97-.19.19-.4.37-.69.64h0Z"/><path id="Path_16840" class="cls-3" d="m69.4,92.93c-1.93-.35-3.85-.8-5.73-1.35-11.71-4.15-17.83-17.01-13.68-28.72,2.74-7.72,9.45-13.34,17.53-14.67,3.19-.54,6.46-.37,9.57.48,1.79.4,2.92,2.18,2.52,3.97s-2.18,2.92-3.97,2.52c-.08-.02-.16-.04-.24-.06-8.44-2.32-17.17,2.65-19.48,11.1-2.32,8.44,2.65,17.17,11.1,19.48,8.44,2.32,17.17-2.65,19.48-11.1.09-.33.17-.67.24-1.01.58-2.81,3.55-3.98,5.53-2.13.46.55.84,1.15,1.14,1.8v1.34c-.07.21-.14.42-.19.63-2.05,8.27-7.08,13.85-15.14,16.62-1.65.47-3.33.83-5.02,1.1h-3.67Z"/><path id="Path_16842" class="cls-3" d="m51.55,35.33c0,4.06,0,8.12,0,12.18.03.98-.34,1.94-1.04,2.64-4.06,4.12-8.12,8.23-12.18,12.35-.98,1.1-2.58,1.4-3.89.75-1.24-.59-1.99-1.88-1.89-3.25.09-.89.51-1.72,1.17-2.33,3.54-3.58,7.06-7.17,10.61-10.73.38-.36.59-.86.56-1.38-.02-7.51-.02-15.01,0-22.52-.09-1.84,1.33-3.4,3.17-3.49s3.4,1.33,3.49,3.17c0,.09,0,.19,0,.28,0,4.11,0,8.23,0,12.34Z"/><path id="Path_16843" class="cls-3" d="m71.18,70.88c.29-.27.5-.45.69-.64,4.37-4.32,8.73-8.64,13.1-12.97.8-.93,2.03-1.36,3.23-1.13,1.81.36,2.98,2.11,2.62,3.92-.13.66-.46,1.27-.94,1.74-1.9,1.91-3.83,3.8-5.74,5.7-2.84,2.82-5.69,5.63-8.53,8.45-2.15,2.42-5.85,2.64-8.27.5-.18-.16-.36-.34-.52-.52-1.48-1.47-2.95-2.94-4.42-4.42-1.42-1.19-1.6-3.3-.42-4.72,1.19-1.42,3.3-1.6,4.72-.42.16.13.3.28.43.43,1.34,1.33,2.66,2.68,4.05,4.1h0Z"/></g></g></g></svg>