<svg xmlns="http://www.w3.org/2000/svg" xmlns:xlink="http://www.w3.org/1999/xlink" width="707.427" height="794.362" viewBox="0 0 707.427 794.362">
  <defs>
    <linearGradient id="linear-gradient" y1="0.5" x2="1" y2="0.5" gradientUnits="objectBoundingBox">
      <stop offset="0.035" stop-color="#4681a0"/>
      <stop offset="0.296" stop-color="#3a7192"/>
      <stop offset="0.8" stop-color="#1b496d"/>
      <stop offset="0.985" stop-color="#0f395f"/>
    </linearGradient>
  </defs>
  <g id="Artwork_197" data-name="Artwork 197" transform="matrix(0.883, -0.469, 0.469, 0.883, 353.714, 397.075)">
    <g id="Group_11622" data-name="Group 11622" transform="translate(-153.042 -465.599)">
      <path id="Path_16764" data-name="Path 16764" d="M57.412,496.73a37.334,37.334,0,0,0-8.086-.878c-20.509,0-37.21,16.472-37.21,36.729s16.7,36.729,37.21,36.729,37.21-16.478,37.21-36.729a36.292,36.292,0,0,0-8.741-23.625l42.245-58.507V18.783H96.252V442.94Zm-8.086,56.925a21.079,21.079,0,1,1,21.357-21.075A21.236,21.236,0,0,1,49.326,553.655Z" transform="translate(60.776 94.218)" fill="url(#linear-gradient)"/>
      <path id="Path_16765" data-name="Path 16765" d="M52.792,485.648a36.17,36.17,0,0,0-4.043,16.641c0,20.25,16.695,36.729,37.2,36.729s37.216-16.478,37.216-36.729S106.474,465.56,85.953,465.56a37.45,37.45,0,0,0-16.165,3.646L23.776,419.789V0A212.27,212.27,0,0,0,0,7.935v421Zm33.161-4.44A21.079,21.079,0,1,1,64.6,502.283,21.242,21.242,0,0,1,85.953,481.208Z" fill="url(#linear-gradient)"/>
      <path id="Path_16766" data-name="Path 16766" d="M101.813,161.2a37.345,37.345,0,0,0,14.926,3.092c20.521,0,37.21-16.472,37.21-36.729s-16.689-36.723-37.21-36.723-37.2,16.478-37.2,36.723a36.172,36.172,0,0,0,4.681,17.82L30.329,207.436v268.11h11.1c4.259,0,8.483-.163,12.676-.409V216.117Zm14.926-54.711A21.079,21.079,0,1,1,95.388,127.56,21.242,21.242,0,0,1,116.739,106.485Z" transform="translate(152.135 455.652)" fill="url(#linear-gradient)"/>
    </g>
  </g>
</svg>
