<?xml version="1.0" encoding="UTF-8"?><svg id="Layer_1" xmlns="http://www.w3.org/2000/svg" xmlns:xlink="http://www.w3.org/1999/xlink" viewBox="0 0 87.76 87.69"><defs><style>.cls-1{fill:none;}.cls-2{clip-path:url(#clippath);}.cls-3{fill:#123a5f;}</style><clipPath id="clippath"><rect class="cls-1" y=".2" width="87" height="87"/></clipPath></defs><g class="cls-2"><g id="Mask_Group_158"><g id="Acquaintech_Scalability_Support-02"><path id="Path_16844" class="cls-3" d="m87.76,79.15c-.79.74-1.53,1.53-2.36,2.21-2.34,1.91-4.73,3.77-7.09,5.66-.57.63-1.48.83-2.27.51-.78-.41-1.23-1.26-1.12-2.14-.01-.4,0-.79,0-1.33h-13.94c-1.85,0-2.48-.62-2.48-2.46v-6.08c0-1.83.59-2.43,2.39-2.43h14.06c0-.64-.01-1.2,0-1.76-.03-.74.39-1.42,1.05-1.73.66-.33,1.46-.22,2,.28,2.92,2.33,5.83,4.67,8.74,7.01.35.32.69.67,1,1.03v1.2Zm-25.53,1.24h1.12c4.2,0,8.39.02,12.59-.01,1.27,0,2.35.17,2.73,1.67l4.34-3.48c-1.46-1.17-2.86-2.28-4.33-3.46-.42,1.45-1.44,1.66-2.69,1.65-4.28-.04-8.56-.02-12.85-.02h-.91v3.64h0Z"/><path id="Path_16845" class="cls-3" d="m87.76,15.08c-.63,1.1-1.35,1.53-2.22,1.32-.84-.18-1.43-.94-1.41-1.8-.03-1.17-.02-2.33,0-3.5-.07-1,.68-1.87,1.68-1.94.77-.06,1.5.38,1.8,1.1.05.07.1.13.16.19v4.63Z"/><path id="Path_16846" class="cls-3" d="m33.46,0c.72.3,1.23.97,1.31,1.75.05.99-.71,1.82-1.7,1.87-.03,0-.06,0-.1,0-1.19.04-2.39.03-3.59,0-.89.05-1.69-.55-1.88-1.42-.17-.84.26-1.68,1.04-2.04.1-.06.19-.11.29-.17h4.62,0Z"/><path id="Path_16847" class="cls-3" d="m22.49,0c.72.3,1.23.97,1.31,1.75.05.99-.71,1.82-1.7,1.87-.03,0-.06,0-.1,0-1.19.04-2.39.03-3.59,0-.89.05-1.69-.55-1.88-1.42-.17-.84.26-1.68,1.04-2.04.1-.06.19-.11.29-.17h4.62,0Z"/><path id="Path_16848" class="cls-3" d="m87.76,47.97c-.63,1.1-1.35,1.53-2.22,1.32-.84-.18-1.43-.94-1.41-1.8-.03-1.17-.02-2.33,0-3.5-.07-1,.68-1.87,1.68-1.94.77-.06,1.5.38,1.8,1.1.05.07.1.13.16.2v4.62h0Z"/><path id="Path_16849" class="cls-3" d="m87.76,26.04c-.63,1.1-1.35,1.53-2.22,1.32-.84-.18-1.43-.94-1.41-1.8-.03-1.17-.02-2.33,0-3.5-.07-1,.68-1.87,1.68-1.94.77-.06,1.5.38,1.8,1.1.05.07.1.13.16.19v4.63Z"/><path id="Path_16850" class="cls-3" d="m87.76,58.93c-.63,1.1-1.35,1.53-2.22,1.32-.84-.18-1.43-.94-1.41-1.8-.03-1.17-.02-2.33,0-3.5-.07-1,.68-1.87,1.68-1.94.77-.06,1.5.38,1.8,1.1.05.07.1.13.16.2v4.63Z"/><path id="Path_16851" class="cls-3" d="m77.31,0c.72.3,1.23.97,1.31,1.75.05.99-.71,1.82-1.7,1.87-.03,0-.06,0-.1,0-1.2.04-2.39.03-3.59,0-.89.05-1.69-.55-1.88-1.42-.17-.84.26-1.68,1.04-2.04.1-.06.2-.11.29-.17h4.62,0Z"/><path id="Path_16852" class="cls-3" d="m87.76,69.9c-.63,1.1-1.35,1.53-2.22,1.32-.84-.18-1.43-.94-1.41-1.8-.03-1.17-.02-2.33,0-3.5-.07-1,.68-1.87,1.68-1.94.77-.06,1.5.38,1.8,1.1.05.07.1.13.16.2v4.63Z"/><path id="Path_16853" class="cls-3" d="m66.35,0c.72.3,1.23.97,1.31,1.75.05.99-.71,1.82-1.7,1.87-.03,0-.06,0-.1,0-1.2.04-2.39.03-3.59,0-.89.05-1.69-.55-1.88-1.42-.17-.84.26-1.68,1.04-2.04.1-.06.2-.11.29-.17h4.62,0Z"/><path id="Path_16854" class="cls-3" d="m55.38,0c.72.3,1.23.97,1.31,1.75.05.99-.71,1.82-1.7,1.87-.03,0-.06,0-.1,0-1.2.04-2.39.03-3.59,0-.89.05-1.69-.55-1.88-1.42-.17-.84.26-1.68,1.04-2.04.1-.06.2-.11.29-.17h4.62,0Z"/><path id="Path_16855" class="cls-3" d="m44.42,0c.72.3,1.23.97,1.31,1.75.05.99-.71,1.82-1.7,1.87-.03,0-.06,0-.1,0-1.2.04-2.39.03-3.59,0-.89.05-1.69-.55-1.88-1.42-.17-.84.26-1.68,1.04-2.04.1-.06.2-.11.29-.17h4.62,0Z"/><path id="Path_16856" class="cls-3" d="m87.76,37c-.63,1.1-1.35,1.53-2.22,1.32-.84-.18-1.43-.94-1.41-1.8-.03-1.17-.02-2.33,0-3.5-.07-1,.68-1.87,1.68-1.94.77-.06,1.5.38,1.8,1.1.05.07.1.13.16.2v4.63Z"/><path id="Path_16857" class="cls-3" d="m87.76,4.11c-.83,1.46-2.21,1.88-3.06.81-.54-.69-1.17-1.32-1.86-1.86-1.08-.85-.64-2.24.81-3.06h2.74l1.37,1.37v2.74h0Z"/><path id="Path_16858" class="cls-3" d="m87.76,1.37l-1.37-1.37h1.37v1.37Z"/><path id="Path_16859" class="cls-3" d="m51.26,62.22v3.49c.28.06.55.12.82.19,1.62.37,2.78,1.81,2.78,3.47.03,3.68.03,7.36,0,11.05.02,1.82-1.34,3.37-3.15,3.59-.37.05-.74.07-1.11.06-14.21,0-28.43,0-42.65-.02-.82,0-1.63-.17-2.38-.51-1.24-.62-1.98-1.93-1.88-3.31,0-3.54-.02-7.08,0-10.62.02-2.16,1.21-3.42,3.62-3.89v-3.5c-.18-.05-.36-.12-.55-.16-1.78-.26-3.08-1.8-3.06-3.59-.04-3.65-.05-7.31,0-10.96-.03-1.99,1.55-3.63,3.54-3.66.09,0,.18,0,.27,0,14.5,0,29,0,43.5,0,2.01-.12,3.73,1.42,3.85,3.42,0,.15,0,.31,0,.46,0,3.25,0,6.51,0,9.76,0,2.96-.73,3.93-3.61,4.71h.02Zm-.08,7.26H7.45v10.85h43.73v-10.84h0ZM7.42,58.4h43.75v-10.84H7.42v10.84h0Zm3.65,3.79v3.55h36.42v-3.55H11.07Z"/><path id="Path_16860" class="cls-3" d="m14.65,12.82v24.9c0,1.93-.57,2.49-2.5,2.5-2.06,0-4.11,0-6.17,0-1.62,0-2.29-.68-2.3-2.3,0-7.99,0-15.98,0-23.97v-1.14h-1.57c-1.02.07-1.91-.71-1.97-1.74-.03-.51.15-1.01.5-1.39C2.99,6.76,5.31,3.83,7.66.92c.53-.84,1.65-1.08,2.49-.55.2.13.38.3.51.5,2.33,2.85,4.65,5.71,6.91,8.61.43.54.66,1.22.65,1.91-.07.91-.85,1.35-1.96,1.42-.5.03-1.01,0-1.61,0h0Zm-3.64,23.68v-1.12c0-7.85.01-15.7-.01-23.54,0-1.27.14-2.35,1.66-2.74-1.19-1.49-2.31-2.88-3.47-4.34-1.17,1.46-2.28,2.85-3.48,4.35,1.52.38,1.67,1.46,1.67,2.69-.02,7.91-.02,15.81,0,23.71v.99h3.64Z"/><path id="Path_16861" class="cls-3" d="m64,65.77c0-.6-.03-1.2,0-1.79-.01-.99.78-1.81,1.78-1.82.03,0,.06,0,.08,0,.98-.01,1.78.77,1.79,1.75,0,.02,0,.04,0,.05.05,1.22.05,2.45,0,3.68,0,.97-.78,1.77-1.75,1.78-.02,0-.04,0-.06,0-.99.02-1.82-.77-1.84-1.76,0-.03,0-.06,0-.08-.04-.59,0-1.19,0-1.79Z"/><path id="Path_16862" class="cls-3" d="m67.66,43.9c0,.6.04,1.2,0,1.79,0,1.01-.83,1.82-1.84,1.81s-1.82-.83-1.81-1.84c-.05-1.2-.05-2.39,0-3.59-.03-.98.74-1.8,1.72-1.84.04,0,.08,0,.12,0,.99,0,1.81.79,1.81,1.79,0,.03,0,.06,0,.09.03.6,0,1.2,0,1.79h0Z"/><path id="Path_16863" class="cls-3" d="m21.96,23.76c-.6,0-1.2.03-1.79,0-.99,0-1.81-.79-1.81-1.79,0-.03,0-.05,0-.08,0-.98.79-1.77,1.76-1.78.02,0,.03,0,.05,0,1.22-.05,2.45-.05,3.68,0,.97,0,1.76.77,1.77,1.74,0,.02,0,.05,0,.07.02.98-.76,1.8-1.74,1.82,0,0-.02,0-.03,0-.62.05-1.25,0-1.88,0h0Z"/><path id="Path_16864" class="cls-3" d="m32.92,23.76c-.6,0-1.2.03-1.79,0-.99,0-1.81-.79-1.81-1.79,0-.03,0-.05,0-.08,0-.98.79-1.77,1.76-1.78.02,0,.03,0,.05,0,1.22-.05,2.45-.05,3.68,0,.97,0,1.76.77,1.77,1.74,0,.02,0,.05,0,.07.02.98-.76,1.8-1.74,1.82,0,0-.02,0-.03,0-.62.05-1.25,0-1.88,0h0Z"/><path id="Path_16865" class="cls-3" d="m43.89,23.76c-.6,0-1.2.03-1.79,0-.99.01-1.81-.79-1.82-1.78,0-.03,0-.05,0-.08,0-.98.78-1.78,1.75-1.79.02,0,.03,0,.05,0,1.22-.05,2.45-.05,3.68,0,.97,0,1.77.77,1.78,1.74,0,.02,0,.04,0,.07.02.98-.75,1.8-1.74,1.83,0,0-.02,0-.02,0-.62.05-1.25,0-1.88,0h0Z"/><path id="Path_16866" class="cls-3" d="m54.94,20.1c.6,0,1.2-.04,1.79,0,.98.01,1.77.82,1.76,1.8,0,0,0,.02,0,.03.03.97-.74,1.78-1.71,1.81-.02,0-.04,0-.07,0-1.25.06-2.51.06-3.76,0-.96-.01-1.74-.8-1.72-1.77,0-.03,0-.06,0-.09,0-.96.77-1.75,1.73-1.77.65-.05,1.31,0,1.97,0h0Z"/><path id="Path_16867" class="cls-3" d="m67.66,32.89c0,.63.04,1.26,0,1.88-.03,1-.87,1.79-1.88,1.76-.97-.03-1.75-.82-1.76-1.8-.05-1.22-.05-2.45,0-3.68-.02-.97.76-1.78,1.74-1.79.02,0,.04,0,.06,0,.99-.03,1.82.75,1.85,1.75,0,.03,0,.06,0,.08.04.6,0,1.2,0,1.79h-.01Z"/><path id="Path_16868" class="cls-3" d="m64,54.82c0-.63-.04-1.26,0-1.88.02-.98.83-1.76,1.81-1.74.01,0,.03,0,.04,0,.96-.03,1.75.73,1.78,1.68,0,0,0,.02,0,.03.07,1.28.07,2.56,0,3.85-.02.96-.81,1.72-1.76,1.7,0,0-.02,0-.03,0-.98.03-1.8-.74-1.83-1.73,0,0,0-.02,0-.03-.05-.62,0-1.25,0-1.88h0Z"/><path id="Path_16869" class="cls-3" d="m67.7,22.98c-.01.4-.05.8-.12,1.2-.15.78-.83,1.35-1.63,1.37-.79.05-1.53-.41-1.82-1.14-.16-.32-.42-.58-.74-.75-.76-.3-1.24-1.07-1.17-1.89.03-.83.67-1.52,1.5-1.61.79-.09,1.59-.09,2.38,0,.83.07,1.49.74,1.54,1.57.05.36.04.74.06,1.25h0Z"/><path id="Path_16870" class="cls-3" d="m14.68,76.75c-.63,0-1.26.03-1.88,0-.99-.03-1.78-.83-1.78-1.82,0-.98.78-1.78,1.76-1.79.01,0,.03,0,.04,0,1.22-.03,2.45-.03,3.68,0,.99-.02,1.81.77,1.83,1.76,0,0,0,0,0,0,.01,1.01-.8,1.84-1.81,1.85-.01,0-.02,0-.04,0-.6.02-1.2,0-1.8,0h0Z"/><path id="Path_16871" class="cls-3" d="m45.85,73.12c.97.04,1.72.86,1.68,1.83,0,.02,0,.03,0,.05-.03.99-.86,1.77-1.86,1.74-.02,0-.04,0-.06,0-.98-.08-1.73-.91-1.7-1.9.04-.99.88-1.76,1.87-1.72.02,0,.04,0,.07,0h0Z"/><path id="Path_16872" class="cls-3" d="m14.68,54.82c-.63,0-1.26.03-1.88,0-.99-.02-1.78-.83-1.78-1.82,0-.98.78-1.78,1.76-1.79.01,0,.02,0,.03,0,1.25-.03,2.51-.04,3.76,0,.96.01,1.74.79,1.75,1.75.02.99-.76,1.82-1.75,1.85-.62.04-1.25.01-1.88.01Z"/><path id="Path_16873" class="cls-3" d="m45.74,51.19c.97-.02,1.77.75,1.79,1.73,0,.02,0,.03,0,.05.03.99-.75,1.82-1.75,1.85-.02,0-.05,0-.07,0-1.02-.02-1.83-.86-1.81-1.88.03-.99.85-1.76,1.83-1.75h0Z"/></g></g></g></svg>