<?xml version="1.0" encoding="UTF-8"?><svg id="Layer_1" xmlns="http://www.w3.org/2000/svg" xmlns:xlink="http://www.w3.org/1999/xlink" viewBox="0 0 90 90"><defs><style>.cls-1{fill:none;}.cls-2{clip-path:url(#clippath);}.cls-3{fill:#123a5f;}</style><clipPath id="clippath"><rect class="cls-1" y="0" width="90" height="90"/></clipPath></defs><g class="cls-2"><g id="Mask_Group_159"><g id="Acquaintech_Source_Code_IP_Ownership"><path id="Path_16874" class="cls-3" d="m14.98,89.98c-1.8-.7-2.44-2.03-2.4-3.92.08-3.54.02-7.09.02-10.63,0-2.83,1-3.84,3.84-3.9.14,0,.29-.02.49-.03v-4.36h-.98c-1.69.15-3.19-1.1-3.34-2.79-.02-.18-.02-.37,0-.55-.02-2.87,0-5.74,0-8.61,0-1.11-.03-2.23,0-3.34-.07-1.68,1.23-3.1,2.91-3.17.11,0,.22,0,.33,0,19.21,0,38.42,0,57.64,0,1.66-.13,3.11,1.12,3.24,2.78,0,.13.01.25,0,.38.04,4.04.04,8.08,0,12.12.07,1.67-1.22,3.09-2.89,3.16-.12,0-.24,0-.35,0h-1.08v4.4h.94c1.7-.18,3.22,1.05,3.4,2.74.02.21.02.42,0,.63.02,3.28,0,6.56,0,9.84,0,.44-.03.88,0,1.32.31,1.72-.71,3.4-2.38,3.92H14.98Zm59.05-33.38c.03-.12.06-.24.07-.36,0-1.26.01-2.52.01-3.78,0-1.12-.02-1.13-1.12-1.13-18.89,0-37.78,0-56.66-.02-.87,0-1.1.28-1.1,1.11.04,3.6.01,7.2.01,10.8-.08.63.37,1.21,1,1.29.11.01.22.01.33,0h56.23c.23.04.47.03.7-.02.23-.09.58-.31.58-.48.04-1.57.03-3.13.03-4.77h-22.06c-.26.01-.53,0-.79-.02-.72-.07-1.24-.71-1.17-1.43.06-.62.54-1.1,1.16-1.17.26-.03.53-.03.79-.02h22.01,0Zm.09,22.84c0-1.47-.05-2.81.02-4.16.04-.9-.28-1.13-1.16-1.13-18.86.02-37.72.03-56.58.02q-1.15,0-1.15,1.2v10.71c-.09.61.33,1.18.95,1.27.1.01.21.02.31,0h56.4c.2.04.41.03.61-.02.22-.11.56-.32.56-.5.04-1.56.03-3.13.03-4.75h-22.08c-.29.02-.59,0-.88-.03-.71-.13-1.18-.8-1.06-1.52.1-.55.53-.97,1.08-1.06.29-.04.58-.05.88-.03h22.08Zm-4.42-12.23H19.7v4.26h50v-4.26Z"/><path id="Path_16875" class="cls-3" d="m25.79,19.97c0-10.95,7.54-19.08,17.47-19.91,10.41-.78,19.48,7.02,20.27,17.43.55,7.31-3.18,14.29-9.57,17.89-.45.26-.83.62-1.13,1.04-1.4,2.02-2.75,4.07-4.14,6.1-2.11,3.09-5.9,3.1-8.01.02-1.37-2.01-2.7-4.04-4.09-6.03-.33-.47-.76-.87-1.25-1.17-6.2-3.74-9.29-9.26-9.55-15.37h0Zm35.13-1c.03-8.97-7.22-16.27-16.19-16.3s-16.27,7.22-16.3,16.19c-.03,8.87,7.05,16.12,15.92,16.3,8.97.18,16.39-6.94,16.57-15.91,0-.09,0-.18,0-.27h0Zm-20.6,18.33c1.05,1.54,1.92,2.92,2.91,4.2.62.8,1.77.96,2.57.34.13-.1.24-.21.34-.34.99-1.28,1.86-2.67,2.91-4.21-2.87.64-5.85.64-8.73,0h0Z"/><path id="Path_16876" class="cls-3" d="m23.23,62.74c-.59,0-1.17.01-1.75,0-1.6.02-2.94-1.22-3.03-2.82-.08-1.34-.08-2.69,0-4.03.08-1.57,1.38-2.8,2.95-2.8,1.23-.04,2.46-.04,3.69,0,1.57,0,2.86,1.24,2.94,2.81.08,1.31.08,2.63,0,3.95-.06,1.63-1.42,2.92-3.05,2.89-.59.02-1.17,0-1.75,0h0Zm0-2.63c1.07.15,2.06-.6,2.21-1.67.03-.18.02-.37,0-.55.15-1.05-.59-2.02-1.64-2.17-.18-.02-.36-.02-.54,0-1.08-.14-2.07.62-2.21,1.7-.02.17-.02.35,0,.52-.15,1.05.58,2.02,1.64,2.17.18.03.36.02.54,0h0Z"/><path id="Path_16877" class="cls-3" d="m37.23,62.74c-.59,0-1.17.02-1.75,0-1.57,0-2.87-1.22-2.96-2.79-.08-1.37-.08-2.75,0-4.12.11-1.53,1.38-2.73,2.92-2.73,1.26-.04,2.52-.04,3.77,0,1.51.03,2.75,1.2,2.86,2.7.09,1.4.09,2.81,0,4.21-.11,1.53-1.38,2.72-2.92,2.74-.64.03-1.29,0-1.93,0h0Zm-2.13-4.91c0,2.27,0,2.29,2.25,2.27,2.41-.02,2.13.4,2.14-2.11.01-2.27,0-2.29-2.25-2.27-2.41.02-2.12-.4-2.14,2.11h0Z"/><path id="Path_16878" class="cls-3" d="m23.24,85.58c-.61,0-1.23.02-1.84,0-1.57-.01-2.86-1.24-2.95-2.81-.08-1.34-.08-2.69,0-4.03.08-1.6,1.43-2.85,3.03-2.81,1.17-.02,2.34-.02,3.51,0,1.64-.03,2.99,1.26,3.05,2.89.07,1.26.07,2.52,0,3.77-.02,1.67-1.38,3.01-3.05,2.99-.03,0-.06,0-.09,0-.56.01-1.11,0-1.67,0h0Zm-.03-7.02c-1.05-.15-2.02.59-2.17,1.64-.02.18-.02.36,0,.54-.14,1.08.62,2.07,1.7,2.21.17.02.35.02.52,0,1.05.15,2.02-.59,2.17-1.64.02-.18.02-.36,0-.54.15-1.07-.6-2.06-1.67-2.21-.18-.03-.37-.02-.55,0h0Z"/><path id="Path_16879" class="cls-3" d="m37.23,85.58c-.59,0-1.17.02-1.75,0-1.57,0-2.87-1.22-2.97-2.79-.09-1.37-.09-2.75,0-4.12.1-1.53,1.37-2.73,2.91-2.74,1.23-.04,2.46-.04,3.69,0,1.57,0,2.87,1.21,2.97,2.78.08,1.34.09,2.69,0,4.03-.08,1.6-1.41,2.85-3.01,2.84-.61.02-1.23,0-1.84,0h0Zm2.26-4.75c0-2.27,0-2.29-2.25-2.27-2.41.02-2.13-.4-2.14,2.11-.01,2.28,0,2.29,2.25,2.27,2.41-.02,2.12.4,2.14-2.11h0Z"/><path id="Path_16880" class="cls-3" d="m46.53,20.57v5.3c.01.32,0,.64-.06.96-.15.69-.84,1.13-1.54.97-.48-.11-.86-.48-.97-.97-.05-.32-.08-.64-.06-.96,0-4.65,0-9.3,0-13.95,0-1.64.33-1.97,1.94-1.97,1.08,0,2.17-.03,3.25.01,2.93.04,5.27,2.45,5.22,5.38s-2.45,5.27-5.38,5.22c-.75.01-1.51,0-2.39,0h0Zm.07-7.92v5.27c.92,0,1.76.05,2.6-.01,1.31-.12,2.34-1.18,2.4-2.5.11-1.31-.79-2.5-2.09-2.74-.97-.07-1.94-.07-2.92-.02h0Z"/><path id="Path_16881" class="cls-3" d="m41.25,18.87v7.02c0,.35.08.8-.1,1.02-.31.42-.74.73-1.23.89-.57.1-1.11-.27-1.21-.84,0-.02,0-.03,0-.05-.07-.34-.09-.69-.08-1.04,0-4.65,0-9.29,0-13.94,0-.29,0-.58.04-.87.12-.7.79-1.17,1.49-1.05.54.09.97.53,1.05,1.07.04.41.06.82.05,1.22v6.58h0Z"/></g></g></g></svg>