<svg xmlns="http://www.w3.org/2000/svg" width="721.918" height="890.642" viewBox="0 0 721.918 890.642">
  <g id="Artwork_197" data-name="Artwork 197" transform="translate(99.758 310.518)">
    <g id="Group_11624" data-name="Group 11624" transform="translate(-99.758 -310.518)">
      <path id="Path_16771" data-name="Path 16771" d="M48.428,511a39.915,39.915,0,0,0-8.645-.939C17.856,510.059,0,527.67,0,549.327S17.856,588.6,39.783,588.6s39.783-17.618,39.783-39.268a38.8,38.8,0,0,0-9.346-25.259l45.167-62.553V0H89.954V453.488Zm-8.645,60.861a22.537,22.537,0,1,1,22.834-22.532A22.7,22.7,0,0,1,39.783,571.859Z" transform="translate(594.815 137.358) rotate(50)" fill="#fff"/>
      <path id="Path_16772" data-name="Path 16772" d="M56.442,519.231a38.671,38.671,0,0,0-4.322,17.791c0,21.651,17.849,39.268,39.777,39.268s39.789-17.618,39.789-39.268S113.837,497.754,91.9,497.754a40.041,40.041,0,0,0-17.283,3.9L25.42,448.818V0A226.949,226.949,0,0,0,0,8.484V458.6ZM91.9,514.484a22.537,22.537,0,1,1-22.828,22.532A22.71,22.71,0,0,1,91.9,514.484Z" transform="translate(637.272 0) rotate(50)" fill="#fff"/>
      <path id="Path_16773" data-name="Path 16773" d="M76.427,75.224A39.928,39.928,0,0,0,92.385,78.53c21.94,0,39.783-17.611,39.783-39.268S114.326,0,92.385,0,52.609,17.618,52.609,39.262a38.673,38.673,0,0,0,5,19.052L0,124.662v286.65H11.867c4.554,0,9.069-.174,13.553-.437V133.944ZM92.385,16.73A22.537,22.537,0,1,1,69.558,39.262,22.71,22.71,0,0,1,92.385,16.73Z" transform="translate(315.083 525.009) rotate(50)" fill="#fff"/>
    </g>
  </g>
</svg>
