<svg xmlns="http://www.w3.org/2000/svg" width="984.688" height="853.067" viewBox="0 0 984.688 853.067">
  <g id="Artwork_197" data-name="Artwork 197" transform="translate(231.074 160.536) rotate(13)">
    <g id="Group_11624" data-name="Group 11624" transform="translate(-99.758 -310.518)">
      <path id="Path_16771" data-name="Path 16771" d="M55.559,586.246a45.793,45.793,0,0,0-9.918-1.077C20.485,585.168,0,605.373,0,630.219S20.485,675.27,45.641,675.27s45.641-20.212,45.641-45.051A44.515,44.515,0,0,0,80.56,601.241l51.818-71.764V0H103.2V520.267Zm-9.918,69.824a25.856,25.856,0,1,1,26.2-25.85A26.048,26.048,0,0,1,45.641,656.069Z" transform="translate(682.406 157.585) rotate(50)" fill="#fff"/>
      <path id="Path_16772" data-name="Path 16772" d="M64.754,595.691A44.366,44.366,0,0,0,59.795,616.1c0,24.839,20.478,45.051,45.634,45.051s45.649-20.212,45.649-45.051-20.478-45.051-45.649-45.051A45.937,45.937,0,0,0,85.6,575.524L29.163,514.91V0A260.368,260.368,0,0,0,0,9.733v516.4Zm40.675-5.446A25.856,25.856,0,1,1,79.24,616.1,26.055,26.055,0,0,1,105.429,590.245Z" transform="translate(731.114) rotate(50)" fill="#fff"/>
      <path id="Path_16773" data-name="Path 16773" d="M87.682,86.3a45.808,45.808,0,0,0,18.308,3.793c25.171,0,45.641-20.2,45.641-45.051S131.161,0,105.99,0,60.356,20.212,60.356,45.044A44.368,44.368,0,0,0,66.1,66.9L0,143.019V471.881H13.615c5.225,0,10.4-.2,15.548-.5V153.668ZM105.99,19.194A25.856,25.856,0,1,1,79.8,45.044,26.055,26.055,0,0,1,105.99,19.194Z" transform="translate(361.482 602.32) rotate(50)" fill="#fff"/>
    </g>
  </g>
</svg>
