<svg xmlns="http://www.w3.org/2000/svg" xmlns:xlink="http://www.w3.org/1999/xlink" width="2063.928" height="601.426" viewBox="0 0 2063.928 601.426">
  <defs>
    <clipPath id="clip-path">
      <rect id="Rectangle_1145" data-name="Rectangle 1145" width="129.028" height="129.028" fill="#fff" stroke="#707070" stroke-width="1"/>
    </clipPath>
    <clipPath id="clip-path-3">
      <rect id="Rectangle_1145-3" data-name="Rectangle 1145" width="130.661" height="129.028" fill="#fff" stroke="#707070" stroke-width="1"/>
    </clipPath>
    <clipPath id="clip-path-6">
      <rect id="Rectangle_1145-6" data-name="Rectangle 1145" width="129.844" height="129.028" fill="#fff" stroke="#707070" stroke-width="1"/>
    </clipPath>
  </defs>
  <g id="Group_12792" data-name="Group 12792" transform="translate(71.964 -2480.962)">
    <path id="Path_20198" data-name="Path 20198" d="M1994.656,17.167c17.468,7.86,139.955,586.341,10.738,528.836S0,604.541,0,604.541V49.37S1350.073-27.748,1994.656,17.167Z" transform="translate(-71.964 2477.848)" fill="#0f395f"/>
    <g id="Component_9_1" data-name="Component 9 – 1" transform="translate(176 2746.5)">
      <g id="Group_11665" data-name="Group 11665" transform="translate(-0.498)">
        <g id="Mask_Group_170" data-name="Mask Group 170" transform="translate(720.498 0)" clip-path="url(#clip-path)">
          <g id="Acquaintech__react" data-name="Acquaintech _react" transform="translate(0 0.55)">
            <path id="Path_16989" data-name="Path 16989" d="M129.4,57.86c-3.838,6.773-7.658,13.556-11.521,20.317-3.553,6.219-7.179,12.4-10.71,18.628a5.813,5.813,0,0,0-.71,2.719c-.057,6.916-.025,13.835-.035,20.751-.006,4.735-2.52,7.249-7.255,7.265-2.868.01-5.737,0-8.605,0a6.648,6.648,0,0,1-1.258-.079,1.835,1.835,0,0,1-.162-3.556,5.931,5.931,0,0,1,1.5-.152c2.951-.013,5.9.013,8.856-.016,2.152-.022,3.119-.96,3.122-3.081q.029-13.222,0-26.444c0-2.092-1-3.062-3.109-3.138-.422-.016-.843,0-1.265,0H30.685c-.38,0-.761-.016-1.138.006A2.764,2.764,0,0,0,26.6,94.133c-.006.168,0,.336,0,.507V120.2c0,2.7.846,3.55,3.553,3.55q24.927,0,49.854.006a8.546,8.546,0,0,1,1.756.136,1.654,1.654,0,0,1,1.388,1.838,1.673,1.673,0,0,1-1.512,1.74,7.6,7.6,0,0,1-1.261.07q-25.179,0-50.361,0c-3.74,0-6.257-1.75-7.017-4.919a10.307,10.307,0,0,1-.19-2.384c-.013-7,.01-14-.035-21a4.794,4.794,0,0,0-.609-2.241Q11.694,78.74,1.125,60.539A6.59,6.59,0,0,1,1.1,53.211Q15.463,28.517,29.661,3.731A6.666,6.666,0,0,1,36.092,0Q64.623.1,93.157,0c3-.01,5.068,1.055,6.412,3.746.922,1.845,2.057,3.578,3.068,5.379.748,1.331.555,2.364-.494,2.96-1.024.583-2.035.2-2.8-1.109-1.109-1.889-2.25-3.762-3.268-5.7a2.433,2.433,0,0,0-2.517-1.461c-1.769.063-3.544.016-5.312.016-17.379,0-34.754.019-52.13-.032a3.2,3.2,0,0,0-3.182,1.867Q18.75,30.387,4.434,55.036a3.112,3.112,0,0,0-.029,3.578c6.1,10.444,12.12,20.929,18.165,31.4.2.352.428.691.288.571q1.559-1.693,3.122-3.382l.723.542c-.532-.941-1.084-1.87-1.591-2.821A1.905,1.905,0,1,1,28.364,83a30.708,30.708,0,0,1,1.816,3.182A1.831,1.831,0,0,0,32.162,87.3q32.458-.038,64.913,0a1.944,1.944,0,0,0,1.99-1.1q8.12-14.211,16.352-28.361a1.666,1.666,0,0,0,.025-1.937q-12.323-21.271-24.58-42.583a1.674,1.674,0,0,0-1.674-.992q-24.547.043-49.093,0a1.775,1.775,0,0,0-1.756,1.068q-12.195,21.2-24.45,42.364a1.836,1.836,0,0,0-.022,2.155c3.242,5.521,6.428,11.078,9.623,16.628a5.986,5.986,0,0,1,.643,1.36,1.718,1.718,0,0,1-.913,2.136,1.745,1.745,0,0,1-2.279-.469,6.091,6.091,0,0,1-.624-.945C16.944,70.786,13.6,64.932,10.193,59.119a4.037,4.037,0,0,1-.022-4.488Q22.875,32.7,35.5,10.729a4,4,0,0,1,3.807-2.19q25.307.033,50.612,0A4.075,4.075,0,0,1,93.8,10.821q12.594,21.918,25.271,43.788a4.049,4.049,0,0,1,0,4.488Q111.09,72.808,103.2,86.567c-.209.361-.406.729-.063.612l3.363,3.287-.479.58c.2-.3.409-.6.59-.91Q115.77,74.261,124.95,58.4a2.738,2.738,0,0,0-.019-3.128q-10.536-18.143-21-36.333c-1-1.74-.929-2.884.228-3.509,1.1-.6,2.076-.089,3.049,1.6q10.521,18.228,21.033,36.459c.437.758.777,1.569,1.163,2.355V57.87Z" transform="translate(0 0)" fill="#fff"/>
            <path id="Path_16990" data-name="Path 16990" d="M81.114,85.3c-3.033,1.639-5.7,3.372-8.58,4.571-5.886,2.444-11.274-.742-11.971-8.019-.26-2.7-.041-5.452-.041-8.339a51.174,51.174,0,0,1-5.271-2.678,19.652,19.652,0,0,1-4.3-3.655c-2.922-3.42-2.532-7.794.764-11.141A22.612,22.612,0,0,1,59.488,51.2c.428-.174.856-.345,1.35-.545-.136-1.429-.3-2.84-.4-4.257a17.12,17.12,0,0,1,.862-7.35c1.68-4.428,5.55-6.368,10.155-5.151a22.651,22.651,0,0,1,7.984,4.231c.4.307.789.628,1.268,1.008,1.081-.786,2.133-1.607,3.239-2.352a17.309,17.309,0,0,1,7.132-3.068c4.681-.675,8.155,1.62,9.429,6.2a22.373,22.373,0,0,1,.355,8.906c-.073.58-.149,1.157-.219,1.677,1.918.951,3.813,1.769,5.578,2.811a18.752,18.752,0,0,1,3.582,2.777c3.658,3.623,3.594,8.45-.048,12.1a20.425,20.425,0,0,1-7.686,4.735c-1.29.463-1.455,1.093-1.261,2.314a19.327,19.327,0,0,1-.583,9.861c-1.674,4.542-5.718,6.488-10.355,5.132a24.423,24.423,0,0,1-7.851-4.222c-.4-.3-.789-.615-.9-.7Zm-.463-12.539v-.158c1.727,0,3.458.07,5.179-.041a2.151,2.151,0,0,0,1.477-.894q2.6-4.255,5-8.624a2.226,2.226,0,0,0,.029-1.832q-2.415-4.431-5.049-8.742a2.094,2.094,0,0,0-1.493-.846c-3.116-.1-6.231-.06-9.347-.12a2.736,2.736,0,0,0-2.707,1.6c-.618,1.147-1.445,2.181-2.048,3.334-3.727,7.151-3.962,4.282.076,11.3,3.547,6.162,1.537,4.716,8.634,5.03.086,0,.168,0,.254,0ZM96.917,49.409c.491-3.239.846-6.415-.463-9.5a3.849,3.849,0,0,0-4.206-2.555c-3.4.406-6.035,2.317-8.609,4.387,1.712,2.06,3.315,4.006,4.941,5.933a1.325,1.325,0,0,0,.723.437c2.482.441,4.973.849,7.613,1.3ZM96.9,74.784c-2.6.434-5.116.849-7.632,1.284a.968.968,0,0,0-.545.276c-1.693,2.013-3.369,4.041-5.081,6.1,2.292,1.851,4.605,3.518,7.464,4.187,2.979.7,4.935-.441,5.743-3.379a18.611,18.611,0,0,0,.051-8.472Zm-32.3-.01c-.5,3.16-.818,6.25.355,9.261A4.061,4.061,0,0,0,70,86.73c3.055-.628,5.506-2.355,7.873-4.292-1.715-2.07-3.366-4.076-5.04-6.063a1.179,1.179,0,0,0-.659-.32c-2.479-.431-4.964-.84-7.569-1.277ZM77.871,41.748a20.857,20.857,0,0,0-6.989-4.076c-2.9-.894-5.008-.029-5.975,2.583-1.116,3.014-.834,6.092-.3,9.154,2.621-.441,5.109-.849,7.591-1.29a1.347,1.347,0,0,0,.726-.434c1.626-1.927,3.23-3.873,4.945-5.933ZM61.694,54.388c-1.052.469-2.063.875-3.033,1.363a12.658,12.658,0,0,0-5.021,3.93,3.824,3.824,0,0,0-.086,4.707c2.016,2.849,5.049,4.152,8.152,5.385.932-2.526,1.81-4.887,2.659-7.258a1.319,1.319,0,0,0,0-.827c-.853-2.371-1.731-4.735-2.675-7.3Zm38.117.041c-.929,2.52-1.8,4.881-2.669,7.249a.994.994,0,0,0-.089.6c.9,2.475,1.826,4.945,2.773,7.487a19.413,19.413,0,0,0,7.271-4.288c2.174-2.235,2.171-4.529-.013-6.767a19.16,19.16,0,0,0-7.274-4.273ZM83.652,76.623H77.868c1.043,1.138,1.937,2.117,2.9,3.166.983-1.078,1.867-2.051,2.884-3.166Zm11.106-9.835c-1.036,1.8-1.918,3.328-2.938,5.1l4.263-.97C95.63,69.5,95.237,68.277,94.759,66.788Zm-28-9.385c1.027-1.788,1.9-3.315,2.919-5.09l-4.244.941C65.881,54.639,66.274,55.875,66.762,57.4Zm14-13.017-2.9,3.179h5.788Zm-14,22.421c-.479,1.487-.881,2.732-1.331,4.133,1.42.3,2.726.586,4.266.916-1.036-1.781-1.924-3.312-2.935-5.052ZM94.768,57.4c.485-1.534.884-2.8,1.322-4.171l-4.254-.894L94.768,57.4Z" transform="translate(-16.138 -11.051)" fill="#fff"/>
            <path id="Path_16991" data-name="Path 16991" d="M53.413,157.338c0,2.3.006,4.532,0,6.761-.006,1.312-.513,1.8-1.835,1.807s-1.908-.5-1.911-1.769c-.013-5.857,0-11.715-.01-17.572,0-1.068.422-1.712,1.547-1.7,2.317.032,4.64-.032,6.945.165,2.989.254,4.713,1.832,5.128,4.364.561,3.445-.466,5.731-3.189,7.1a3.446,3.446,0,0,0-.371.276c1.132,2.111,2.266,4.212,3.385,6.32.65,1.223.447,1.952-.7,2.618-1.116.647-1.943.428-2.6-.8-1.052-1.965-2.048-3.962-3.068-5.946a3,3,0,0,0-3.319-1.626Zm0-3.173c1.509,0,2.856.1,4.187-.029,1.3-.12,1.984-1.151,2.067-2.758.076-1.531-.583-2.8-1.781-2.983-1.429-.225-2.894-.225-4.4-.33-.035.523-.07.808-.07,1.1-.006,1.639,0,3.274,0,5Z" transform="translate(-16.361 -47.732)" fill="#fff"/>
            <path id="Path_16992" data-name="Path 16992" d="M76.2,163.592c.254,2.374,1.7,3.525,3.819,3.16a13.24,13.24,0,0,0,2.507-.818,1.4,1.4,0,0,1,1.372,2.39,7.821,7.821,0,0,1-7.8.77,5.322,5.322,0,0,1-3.623-5.5c.016-.967-.019-1.94.073-2.9.285-2.932,3.185-5.128,6.545-5.008a5.562,5.562,0,0,1,5.591,5.236c.063,1.9-.6,2.628-2.5,2.659-1.968.032-3.94.006-5.99.006Zm.038-2.152c1.265,0,2.507.032,3.746-.019.384-.016,1.036-.187,1.074-.387a2.144,2.144,0,0,0-.25-1.4,2.683,2.683,0,0,0-3.157-.843,2.206,2.206,0,0,0-1.417,2.65Z" transform="translate(-23.881 -51.294)" fill="#fff"/>
            <path id="Path_16993" data-name="Path 16993" d="M100.767,167.517a5.926,5.926,0,0,1-4.139,2.171,3.477,3.477,0,0,1-3.677-2.634c-.513-2.2.244-4.006,2.136-4.675a16.157,16.157,0,0,1,3.322-.637,17.758,17.758,0,0,1,2.212-.019c-.086-2.605-1.182-3.493-3.506-3.036a6.03,6.03,0,0,0-1.537.539c-.723.365-1.3.342-1.674-.444-.355-.735-.5-1.5.326-2.009a7.515,7.515,0,0,1,7.246-.488c2.136.922,2.887,2.818,2.9,5.043.013,1.978-.019,3.959.019,5.937.022,1.109-.082,2.038-1.487,2.149-1.258.1-1.74-.279-2.146-1.892Zm-.124-4.022c-1.065.143-2.025.2-2.948.418a1.336,1.336,0,0,0-1.059,1.911c.323.945,1.065,1.084,1.94.834,1.293-.371,2-1.379,2.067-3.16Z" transform="translate(-30.574 -51.261)" fill="#fff"/>
            <path id="Path_16994" data-name="Path 16994" d="M136.538,152.978c1,0,1.876.032,2.748-.01,1.059-.048,1.585.418,1.585,1.477,0,1.024-.434,1.569-1.537,1.5-.875-.054-1.753-.01-2.745-.01,0,2.152-.067,4.206.057,6.247.025.409.726.91,1.217,1.116a8.121,8.121,0,0,0,1.743.184,1.405,1.405,0,0,1,1.22,1.639c-.029.815-.428,1.471-1.262,1.458a17.047,17.047,0,0,1-4.108-.39,3.345,3.345,0,0,1-2.517-3.414c-.067-4.719-.067-9.439-.06-14.158,0-.986.792-1.585,1.924-1.487.919.079,1.772.3,1.743,1.537-.032,1.379-.006,2.761-.006,4.3Z" transform="translate(-43.781 -48.474)" fill="#fff"/>
            <path id="Path_16995" data-name="Path 16995" d="M113.566,162.648c0-.254,0-.5,0-.758.1-5.22,4.612-7.965,9.35-5.686,1.363.656,1.759,1.547,1.141,2.574a1.219,1.219,0,0,1-1.683.637,8.567,8.567,0,0,0-1.068-.38c-2.536-.719-4.019.387-4.057,3.014-.006.38-.006.758,0,1.138.041,2.609,1.569,3.731,4.082,2.986a8.374,8.374,0,0,0,1.059-.406,1.527,1.527,0,0,1,1.442,2.666,7.348,7.348,0,0,1-7.1.637c-2.184-.821-3.017-2.672-3.116-4.9-.022-.5,0-1.011,0-1.515h-.041Z" transform="translate(-37.417 -51.2)" fill="#fff"/>
            <path id="Path_16996" data-name="Path 16996" d="M93.409,67.1a6.048,6.048,0,1,1-6.054,6.044A6.122,6.122,0,0,1,93.409,67.1Zm-.07,8.288a2.24,2.24,0,1,0-2.177-2.333,2.323,2.323,0,0,0,2.177,2.333Z" transform="translate(-28.782 -22.108)" fill="#fff"/>
          </g>
        </g>
        <g id="Mask_Group_168" data-name="Mask Group 168" transform="translate(1199.498 0)" clip-path="url(#clip-path)">
          <g id="Acquaintech__ai" data-name="Acquaintech _ai" transform="translate(-0.48 -0.383)">
            <path id="Path_16964" data-name="Path 16964" d="M0,85.407a2.648,2.648,0,0,1,2.355-1.136c4.579.036,9.155.015,13.734.021.335,0,.786-.072.98.108.511.475,1.2,1.043,1.261,1.629.051.517-.58,1.2-1.067,1.629-.284.251-.879.2-1.333.206-4.5.012-8.988-.009-13.483.021A2.638,2.638,0,0,1,0,86.671V85.407Z" transform="translate(0.003 -27.766)" fill="#fff"/>
            <path id="Path_16965" data-name="Path 16965" d="M0,104.59a2.616,2.616,0,0,1,2.442-1.214c4.492.03,8.988.012,13.483.015a5.731,5.731,0,0,1,.879.045,1.691,1.691,0,0,1,1.59,1.8,1.641,1.641,0,0,1-1.677,1.7c-.837.054-1.68.036-2.52.036-3.906,0-7.813-.021-11.716.015A2.734,2.734,0,0,1,0,105.848v-1.264Z" transform="translate(0.003 -34.061)" fill="#fff"/>
            <path id="Path_16966" data-name="Path 16966" d="M85.386,183.968a2.656,2.656,0,0,1-1.133-2.355c.039-4.576.015-9.155.018-13.731a4.793,4.793,0,0,1,.063-.879,1.492,1.492,0,0,1,1.653-1.39,3.479,3.479,0,0,1,1.689,1.211c.227.248.158.8.158,1.216.009,4.492-.012,8.988.018,13.48a2.628,2.628,0,0,1-1.208,2.445H85.38Z" transform="translate(-27.757 -54.561)" fill="#fff"/>
            <path id="Path_16967" data-name="Path 16967" d="M104.575,183.957a2.625,2.625,0,0,1-1.208-2.445c.033-4.492.012-8.988.015-13.48a5.377,5.377,0,0,1,.039-.879,1.691,1.691,0,0,1,1.8-1.59,1.634,1.634,0,0,1,1.7,1.677c.054.879.033,1.763.033,2.645,0,3.865-.021,7.726.015,11.591a2.735,2.735,0,0,1-1.133,2.481h-1.264Z" transform="translate(-34.055 -54.55)" fill="#fff"/>
            <path id="Path_16968" data-name="Path 16968" d="M0,66.213a2.9,2.9,0,0,1,2.511-1.079c4.537.051,9.074.018,13.611.024,1.453,0,2.289.655,2.3,1.746s-.849,1.805-2.266,1.808c-4.621.012-9.242-.012-13.863.018A2.454,2.454,0,0,1,0,67.475V66.21Z" transform="translate(0.003 -21.461)" fill="#fff"/>
            <path id="Path_16969" data-name="Path 16969" d="M0,123.8a2.368,2.368,0,0,1,2.158-1.243c4.7.03,9.409,0,14.114.018,1.417.006,2.346.909,2.11,2.041a1.687,1.687,0,0,1-1.76,1.488c-4.956.006-9.914.039-14.87-.045-.589-.009-1.169-.652-1.754-1V123.79Z" transform="translate(0.004 -40.379)" fill="#fff"/>
            <path id="Path_16970" data-name="Path 16970" d="M66.186,183.949a2.907,2.907,0,0,1-1.079-2.508c.051-4.537.018-9.071.024-13.608,0-1.456.652-2.286,1.746-2.3s1.8.846,1.805,2.266c.012,4.621-.015,9.242.018,13.863a2.451,2.451,0,0,1-1.252,2.287H66.184Z" transform="translate(-21.449 -54.542)" fill="#fff"/>
            <path id="Path_16971" data-name="Path 16971" d="M123.775,183.946a2.385,2.385,0,0,1-1.249-2.158c.027-4.7,0-9.409.018-14.114.006-1.42.915-2.346,2.047-2.11a1.687,1.687,0,0,1,1.491,1.76c.006,4.956.036,9.914-.045,14.87-.009.589-.652,1.169-1,1.754h-1.264Z" transform="translate(-40.367 -54.539)" fill="#fff"/>
            <path id="Path_16972" data-name="Path 16972" d="M76.585,117.13q-14.4,0-28.8,0c-7.108,0-11.558-4.477-11.558-11.612q0-28.985,0-57.973c0-5.431,3.18-9.645,8.216-10.859a13.535,13.535,0,0,1,3.126-.329q29.057-.027,58.11-.012c6.845,0,11.367,4.555,11.37,11.43q.009,28.985,0,57.973c0,6.857-4.537,11.376-11.409,11.382q-14.526.013-29.055,0Zm-.012-3.554h29.064c4.908,0,7.855-2.947,7.855-7.87q.009-28.994,0-57.988c0-4.845-2.932-7.8-7.789-7.807q-29.061-.022-58.125,0c-4.86,0-7.789,2.959-7.789,7.8q-.009,28.994,0,57.988c0,4.929,2.938,7.87,7.852,7.87q14.468,0,28.936,0Z" transform="translate(-11.932 -11.974)" fill="#fff"/>
            <path id="Path_16973" data-name="Path 16973" d="M106.958,9.215c0,2.316.012,4.63-.006,6.946-.012,1.459-.687,2.289-1.784,2.278s-1.772-.852-1.775-2.307c-.012-4.63-.021-9.263,0-13.892C103.4.5,104.738-.538,105.951.29a2.668,2.668,0,0,1,.962,1.856c.114,2.352.045,4.714.045,7.072Z" transform="translate(-34.059 -0.001)" fill="#fff"/>
            <path id="Path_16974" data-name="Path 16974" d="M84.272,9.268c0-2.316-.012-4.63.006-6.946C84.29.842,84.939.041,86.06.053s1.778.837,1.784,2.292c.012,4.63.021,9.263,0,13.892-.009,1.734-1.348,2.783-2.556,1.958a2.674,2.674,0,0,1-.962-1.856c-.114-2.352-.045-4.714-.048-7.072Z" transform="translate(-27.758 -0.018)" fill="#fff"/>
            <path id="Path_16975" data-name="Path 16975" d="M174.785,84.293c2.316,0,4.633-.015,6.949.006,1.477.012,2.281.67,2.269,1.787s-.84,1.778-2.3,1.784c-4.633.015-9.266.006-13.9,0-.894,0-1.775-.194-2.018-1.157A2.141,2.141,0,0,1,166.067,85a2.711,2.711,0,0,1,1.775-.675c2.313-.075,4.63-.03,6.946-.03Z" transform="translate(-54.601 -27.77)" fill="#fff"/>
            <path id="Path_16976" data-name="Path 16976" d="M174.844,106.975c-2.358,0-4.716.015-7.075-.006-1.444-.012-2.278-.714-2.242-1.82.033-1.064.84-1.743,2.209-1.749q7.012-.027,14.024,0c1.369.006,2.161.7,2.173,1.778s-.765,1.769-2.14,1.787c-2.316.027-4.633.006-6.949.009Z" transform="translate(-54.535 -34.064)" fill="#fff"/>
            <path id="Path_16977" data-name="Path 16977" d="M126.1,9.286c0,2.358.012,4.716-.006,7.075-.009,1.261-.687,2.059-1.7,2.1-1.064.036-1.835-.8-1.841-2.107q-.027-7.075,0-14.149c0-1.333.72-2.149,1.793-2.146s1.743.792,1.751,2.161c.015,2.358,0,4.716,0,7.075Z" transform="translate(-40.37 -0.018)" fill="#fff"/>
            <path id="Path_16978" data-name="Path 16978" d="M174.789,65.168c2.316,0,4.633-.009,6.949,0,1.381.009,2.17.646,2.191,1.722.021,1.106-.828,1.829-2.245,1.832q-6.949.018-13.9,0c-1.42,0-2.278-.72-2.263-1.82s.846-1.728,2.316-1.734c2.316-.009,4.633,0,6.949,0Z" transform="translate(-54.534 -21.471)" fill="#fff"/>
            <path id="Path_16979" data-name="Path 16979" d="M68.7,9.307c0,2.4.087,4.806-.057,7.2a2.538,2.538,0,0,1-1.24,1.772c-.436.215-1.309-.2-1.85-.553-.287-.185-.386-.825-.386-1.258q-.04-7.2-.009-14.4a1.769,1.769,0,0,1,1.775-2A1.829,1.829,0,0,1,68.694,2.11c.027,2.4.009,4.8.006,7.2Z" transform="translate(-21.46 -0.021)" fill="#fff"/>
            <path id="Path_16980" data-name="Path 16980" d="M174.686,126.116c-2.358,0-4.716.012-7.075-.006-1.258-.009-2.056-.69-2.083-1.71-.03-1.067.8-1.823,2.116-1.826q7.075-.022,14.149,0c1.33,0,2.149.723,2.14,1.8s-.8,1.734-2.17,1.743c-2.358.015-4.716,0-7.075,0Z" transform="translate(-54.535 -40.383)" fill="#fff"/>
            <path id="Path_16981" data-name="Path 16981" d="M81.128,49.66c7.705,0,15.411-.015,23.116.006,4.065.012,7.018,2.119,7.956,5.685a10.984,10.984,0,0,1,.3,2.747q.027,23.049.009,46.1c0,5.228-3.213,8.432-8.429,8.435q-23.053.013-46.107,0c-5.222,0-8.453-3.2-8.456-8.4q-.018-23.112,0-46.223c.006-5.174,3.168-8.321,8.363-8.336,7.747-.021,15.494-.006,23.242-.006Zm27.806,31.461q0-11.433,0-22.865c0-3.524-1.482-5.021-4.962-5.021H58.1c-3.518,0-5,1.471-5,4.974q0,22.928,0,45.859c0,3.458,1.551,4.994,5.018,4.994h45.742c3.545,0,5.069-1.521,5.072-5.075Q108.938,92.553,108.934,81.121Z" transform="translate(-16.311 -16.361)" fill="#fff"/>
            <path id="Path_16982" data-name="Path 16982" d="M86.382,75.929a2.333,2.333,0,0,1,2.472,1.8C90.832,84.373,92.889,91,94.909,97.632c.392,1.282.114,1.841-1.061,2.209-1.237.389-1.847.051-2.239-1.24s-.418-3.046-1.285-3.712-2.573-.269-3.912-.26-3-.341-3.892.317c-.843.622-.873,2.349-1.252,3.593-.439,1.444-1.318,1.832-2.651,1.145a1.306,1.306,0,0,1-.792-1.74Q81,87.7,84.116,77.451a2.166,2.166,0,0,1,2.26-1.524Zm.158,5.126c-.081.015-.161.03-.239.042-1.025,3.527-2.053,7.057-3.1,10.664h6.465c-1.067-3.658-2.1-7.182-3.123-10.709Z" transform="translate(-25.608 -25.017)" fill="#fff"/>
            <path id="Path_16983" data-name="Path 16983" d="M111.05,88.132c0,3.41-.039,6.821.021,10.228.021,1.237-.6,1.665-1.665,1.719-1.21.063-1.8-.487-1.8-1.713q-.018-10.231,0-20.459c0-1.255.526-1.728,1.79-1.7,1.208.024,1.647.457,1.65,1.695C111.056,81.312,111.05,84.722,111.05,88.132Z" transform="translate(-35.449 -25.109)" fill="#fff"/>
          </g>
        </g>
        <g id="Mask_Group_165" data-name="Mask Group 165" transform="translate(239.498 0)" clip-path="url(#clip-path-3)">
          <g id="Acquaintech__python" data-name="Acquaintech _python" transform="translate(0.683 -0.383)">
            <path id="Path_16959" data-name="Path 16959" d="M90.553,98.334c0,5.749.014,11.339-.01,16.928a20.727,20.727,0,0,1-.256,3.534A12.7,12.7,0,0,1,77.94,129.348q-18.429.118-36.855,0a12.774,12.774,0,0,1-12.579-12.637c-.085-7.222-.024-14.444-.027-21.665V93.164c-4.942,0-9.723.017-14.5-.01A19.518,19.518,0,0,1,10.6,92.9,12.753,12.753,0,0,1,.048,80.38q-.087-18.271,0-36.542a12.81,12.81,0,0,1,12.8-12.75c8.029-.068,16.059-.017,24.085-.017h1.885c0-5.749-.014-11.339.01-16.928a20.058,20.058,0,0,1,.256-3.534A12.739,12.739,0,0,1,51.6.048q18.266-.087,36.531,0a12.808,12.808,0,0,1,12.75,12.8c.072,7.167.017,14.334.02,21.505v1.888c4.935,0,9.717-.014,14.5.01a19.516,19.516,0,0,1,3.371.252,12.738,12.738,0,0,1,10.558,12.511q.092,18.271,0,36.542a12.808,12.808,0,0,1-12.8,12.753c-8.03.072-16.059.017-24.085.02H90.554ZM28.478,87.974V76.052c.007-8.524,5.4-13.932,13.915-13.936q22.545-.005,45.086-.007c4.949,0,8.237-3.258,8.244-8.176q.026-20.285,0-40.57c-.007-4.857-3.272-8.156-8.091-8.162q-17.775-.026-35.553,0C47.274,5.208,44.012,8.52,44,13.37c-.017,5.443-.007,10.882,0,16.325,0,.416.041.828.072,1.37h1.844q11.635,0,23.271,0c2.113,0,3.207.872,3.238,2.532.034,1.718-1.1,2.628-3.3,2.634-2.692.007-5.388,0-8.081,0q-23.838,0-47.673,0c-4.563,0-8.115,3.132-8.139,7.433q-.112,18.424,0,36.852a7.549,7.549,0,0,0,7.327,7.413c5.221.109,10.446.027,15.923.027ZM100.9,41.487V53.173c0,8.759-5.337,14.116-14.062,14.116q-22.545,0-45.086.007a7.711,7.711,0,0,0-8.094,7.992q-.031,20.449,0,40.894a7.7,7.7,0,0,0,7.907,8.016q17.939.046,35.874,0a7.719,7.719,0,0,0,7.937-7.989c.027-3.231.007-6.465.007-9.7V98.338H60.692a11.448,11.448,0,0,1-1.452-.027,2.416,2.416,0,0,1-2.28-2.488,2.441,2.441,0,0,1,2.3-2.628,15,15,0,0,1,1.615-.027h47.349c2.8,0,5.6.051,8.4-.02a7.607,7.607,0,0,0,7.515-7.4q.112-18.424,0-36.852a7.6,7.6,0,0,0-7.627-7.454c-4.9-.061-9.8-.017-14.706-.014-.256,0-.511.034-.913.065Z" transform="translate(-0.001 -0.001)" fill="#fff"/>
            <path id="Path_16960" data-name="Path 16960" d="M82.432,29.672a5.169,5.169,0,1,1,5.1-5.2A5.214,5.214,0,0,1,82.432,29.672Z" transform="translate(-25.435 -6.371)" fill="#fff"/>
            <path id="Path_16961" data-name="Path 16961" d="M105.572,168.574a5.169,5.169,0,1,1,5.105-5.194,5.212,5.212,0,0,1-5.105,5.194Z" transform="translate(-33.062 -52.137)" fill="#fff"/>
          </g>
        </g>
        <g id="Mask_Group_166" data-name="Mask Group 166" transform="translate(0.498 0)" clip-path="url(#clip-path)">
          <g id="UCzUA6" transform="translate(12.604 -0.383)">
            <path id="Path_16962" data-name="Path 16962" d="M19.668,84.246C13.255,77.831,6.674,71.247,0,64.573c.182-.195.476-.52.786-.828Q32.184,32.336,63.573.919A2.762,2.762,0,0,1,65.714,0q18.537.044,37.077.022c.392,0,.783.039,1.077.057q-42.145,42.127-84.2,84.17Z" fill="#fff"/>
            <path id="Path_16963" data-name="Path 16963" d="M44.152,123.642c2.646-2.572,5.3-5.078,7.872-7.662q13.079-13.142,26.1-26.34a2.717,2.717,0,0,1,2.139-.894q18.6.044,37.2.02h1.375L83.789,123.518c11.915,11.821,23.49,23.31,35.321,35.05-.82.042-1.217.079-1.614.079q-18.659,0-37.321-.027a2.825,2.825,0,0,1-1.828-.678Q61.591,141.249,44.9,124.487c-.2-.2-.372-.416-.749-.843Z" transform="translate(-14.547 -29.24)" fill="#fff"/>
          </g>
        </g>
        <g id="Mask_Group_167" data-name="Mask Group 167" transform="translate(959.498 0)" clip-path="url(#clip-path)">
          <path id="Acquaintech__Drupl" data-name="Acquaintech _Drupl" d="M49.611,0c3.318,10.186,10.467,17.163,17.342,24.353,5.888,6.155,11.894,12.212,17.491,18.624a60.3,60.3,0,0,1,13.1,23.987A49.6,49.6,0,1,1,1.1,90.038c-2.912-13.96.071-26.852,7.629-38.8,4.447-7.031,10-13.149,15.786-19.063,4.251-4.342,8.58-8.6,12.746-13.027C42.455,13.632,47.2,7.778,49.611,0Zm-.085,28.448c-2.513,2.516-5.029,5.012-7.514,7.531-1.214,1.231-2.465,2.438-3.551,3.778a5.244,5.244,0,0,0-.5,6.463,13.321,13.321,0,0,0,1.7,2.191c6.892,7.359,13.876,14.637,20.69,22.067,5.925,6.456,12.269,12.557,17.291,19.811a3.135,3.135,0,0,0,2,1.079,2.286,2.286,0,0,0,2.425-1.846A40.911,40.911,0,0,0,84,81.851c.8-7.88-1.562-15-5.9-21.5C73.051,52.774,66.95,46.054,60.68,39.5c-3.581-3.744-7.359-7.3-11.15-11.052Zm.024,45.682c-4.579,5.225-9.138,10.2-13.423,15.4a16.065,16.065,0,0,0-3.4,12.6A17.048,17.048,0,1,0,62.828,89.067c-2.628-3.132-5.418-6.125-8.137-9.178-1.65-1.853-3.3-3.7-5.14-5.756ZM27.589,51.248c-1.688,1.982-3.331,3.74-4.782,5.644-4.579,6.02-7.491,12.672-7.413,20.4a21.855,21.855,0,0,0,3.148,11.681A9.068,9.068,0,0,0,20.477,91.1c.663.544,1.272.281,1.772-.473a67.209,67.209,0,0,1,5.1-7.342C31.769,78.256,36.429,73.43,41,68.523c1.055-1.133,1.086-1.424.081-2.54-1.241-1.38-2.5-2.743-3.75-4.112-3.189-3.48-6.378-6.956-9.74-10.626Z" transform="translate(14.77 -0.383)" fill="#fff"/>
        </g>
        <g id="Mask_Group_169" data-name="Mask Group 169" transform="translate(480.498 0)" clip-path="url(#clip-path-6)">
          <g id="Acquaintech___Joomla" data-name="Acquaintech _ Joomla" transform="translate(0.028 -0.341)">
            <path id="Path_16984" data-name="Path 16984" d="M77.126,99.675c-.989,1.06-2.012,2.228-3.106,3.326Q61.354,115.7,48.654,128.37a10.618,10.618,0,0,1-15.1-14.93c.311-.331.618-.665.746-.8-4.274-4.281-8.474-8.495-12.745-12.772-7.853,7.765-10.625,17.185-8.319,28.083-9.9,2.86-13.883,11.422-13.15,18.542A17.288,17.288,0,0,0,14.5,161.926a16.96,16.96,0,0,0,11.111-1.914,17.358,17.358,0,0,0,8.572-11.138c2.005.236,3.913.611,5.831.662a28.407,28.407,0,0,0,21.722-8.69q13.785-13.815,27.587-27.614c.26-.26.49-.547.648-.726-4.264-4.261-8.457-8.444-12.85-12.833Z" transform="translate(0.001 -32.84)" fill="#fff"/>
            <path id="Path_16985" data-name="Path 16985" d="M131.793,0c1.3.294,2.637.5,3.906.9a17.289,17.289,0,0,1-2.09,33.5c-.24.044-.473.132-.75.213q3.991,16.9-8.174,29.012c-4.3-4.291-8.525-8.5-12.8-12.762a11.309,11.309,0,0,0,3.771-6.563A10.606,10.606,0,0,0,110.341,33.2a10.371,10.371,0,0,0-12.195,1.469c-3.255,3.052-6.354,6.27-9.507,9.426-6.516,6.519-13.025,13.049-19.43,19.471-4.261-4.274-8.464-8.488-12.816-12.85-.047.277-.064.172-.017.128,9.767-9.761,19.39-19.676,29.363-29.221,7.553-7.228,16.743-9.247,26.9-6.8.162.041.327.061.652.118.138-.6.263-1.2.415-1.786A17.256,17.256,0,0,1,128.538.216,9.065,9.065,0,0,0,129.517,0h2.276Z" transform="translate(-18.565 0)" fill="#fff"/>
            <path id="Path_16986" data-name="Path 16986" d="M161.611,133.275c-.287,1.138-.506,2.3-.868,3.407a17.288,17.288,0,0,1-33.063-.6c-.115-.4-.236-.8-.365-1.236q-17.148,4.376-29.562-8.039c4.3-4.281,8.528-8.478,13.025-12.951a4.535,4.535,0,0,0,.679,1.043,10.578,10.578,0,0,0,14.916-15c-4.649-4.757-9.386-9.433-14.092-14.133-4.852-4.848-9.713-9.69-14.47-14.433L110.58,58.57c.135.125.446.388.733.679q13.663,13.669,27.327,27.34a28.607,28.607,0,0,1,8.8,23.046c-.095,1.459-.382,2.907-.587,4.443a2.9,2.9,0,0,0,.517.216A17.164,17.164,0,0,1,161.408,128.8a1.861,1.861,0,0,0,.209.439v4.045Z" transform="translate(-32.208 -19.298)" fill="#fff"/>
            <path id="Path_16987" data-name="Path 16987" d="M18.543,0c2.252.638,4.646.979,6.725,1.975A16.472,16.472,0,0,1,34.5,13.907c.034.159.1.314.192.594,10.75-2.029,20.017.733,27.607,8.515-4.281,4.295-8.488,8.511-12.735,12.772-.233-.219-.564-.537-.9-.851A10.618,10.618,0,0,0,33.743,50.049c4.3,4.392,8.687,8.7,13.036,13.046Q54.193,70.5,61.61,77.919c.263.263.506.544.706.76-4.247,4.224-8.451,8.4-13.036,12.961a3.337,3.337,0,0,0-.537-1.033q-13.471-13.5-26.983-26.966c-8.106-8.066-10.888-17.624-8.194-28.752.03-.122.071-.243.095-.368.007-.037-.024-.081.041.111a57.878,57.878,0,0,1-6.131-3.184A17.1,17.1,0,0,1,.781,13.208,17.263,17.263,0,0,1,15.434.223,6.082,6.082,0,0,0,16.268,0Z" transform="translate(-0.085 0)" fill="#fff"/>
            <path id="Path_16988" data-name="Path 16988" d="M77.126,99.677c4.392,4.386,8.586,8.572,12.85,12.833-.159.179-.392.466-.648.726q-13.79,13.81-27.587,27.614a28.414,28.414,0,0,1-21.722,8.69c-1.918-.054-3.825-.425-5.831-.662a17.347,17.347,0,0,1-8.572,11.138A16.953,16.953,0,0,1,14.5,161.931,17.285,17.285,0,0,1,.084,146.495c-.733-7.124,3.255-15.682,13.15-18.542-2.306-10.9.466-20.321,8.319-28.083,4.271,4.281,8.471,8.491,12.745,12.772-.128.138-.436.473-.746.8a10.618,10.618,0,0,0,15.1,14.93q12.737-12.63,25.365-25.369c1.094-1.1,2.117-2.262,3.106-3.326Z" transform="translate(0.001 -32.842)" fill="#fff"/>
          </g>
        </g>
        <g id="Acquaintech__wordpress" data-name="Acquaintech _wordpress" transform="translate(1438.498)">
          <path id="Path_16997" data-name="Path 16997" d="M129.02,60.727v7.56a8.969,8.969,0,0,0-.214,1.089,59.9,59.9,0,0,1-7.376,25.412c-11.885,21.127-30,32.633-54.217,34.12a59.068,59.068,0,0,1-32.84-7.432C13.142,109.651,1.626,91.483.115,67.224A59.75,59.75,0,0,1,7.58,34.262Q22.588,6.971,53.276,1.017C55.737.546,58.249.332,60.737,0H68.3a6.719,6.719,0,0,0,.971.207A60.556,60.556,0,0,1,94.91,7.639c18.135,10.078,29.253,25.326,33.107,45.765.458,2.419.675,4.881,1,7.323ZM64.574,7.985a56.544,56.544,0,0,0-56.58,56.4c-.188,31.1,25.181,56.553,56.461,56.642a56.546,56.546,0,0,0,56.58-56.4c.188-31.1-25.181-56.55-56.461-56.642Z" transform="translate(0.005)" fill="#fff"/>
          <path id="Path_16998" data-name="Path 16998" d="M144.113,54.878c-6.987.234-10.779,7.116-7.866,13.731a64.657,64.657,0,0,0,3.666,6.727c2.9,4.9,5,10.065,4.384,15.847a58.163,58.163,0,0,1-2.093,9.686c-2.027,7.093-4.239,14.133-6.378,21.192-.082.273-.194.54-.392,1.08-6.148-18.289-12.214-36.329-18.319-54.493,1.593-.132,3.041-.24,4.489-.378a9.252,9.252,0,0,0,1.734-.276,1.879,1.879,0,0,0,1.415-2.218,1.789,1.789,0,0,0-1.922-1.767c-1.886.03-3.775.151-5.658.283a131.06,131.06,0,0,1-19.754-.24A15.251,15.251,0,0,0,95.405,64,1.938,1.938,0,0,0,93.48,65.94a1.793,1.793,0,0,0,1.563,2.09c1.534.227,3.081.392,4.627.484a1.315,1.315,0,0,1,1.349,1.01c2.419,6.7,4.878,13.392,7.3,20.093a2.164,2.164,0,0,1,.046,1.307q-5.307,16.06-10.674,32.1c-.023.072-.1.125-.313.369-6.138-18.26-12.24-36.4-18.4-54.733,1.491-.132,2.844-.247,4.2-.378a13.535,13.535,0,0,0,1.866-.253,2,2,0,0,0,1.613-2.215A1.9,1.9,0,0,0,84.61,64c-2.264.066-4.525.309-6.79.355-3.3.066-6.6.016-9.88.016,16.265-25.915,53.822-30.4,76.182-9.5Z" transform="translate(-45.578 -27.959)" fill="#fff"/>
          <path id="Path_16999" data-name="Path 16999" d="M183.555,253.04a51.1,51.1,0,0,1-31.135.78c5.059-14.705,10.1-29.358,15.242-44.3,5.345,14.639,10.588,28.989,15.893,43.52Z" transform="translate(-102.253 -140.562)" fill="#fff"/>
          <path id="Path_17000" data-name="Path 17000" d="M70.264,199.6C46.172,188.13,34.814,158.667,46.1,133.39,54.183,155.537,62.194,177.483,70.264,199.6Z" transform="translate(-27.983 -89.488)" fill="#fff"/>
          <path id="Path_17001" data-name="Path 17001" d="M273.83,191.094c1.81-5.236,3.525-10.223,5.253-15.206,3.953-11.4,7.968-22.782,11.839-34.212a41.876,41.876,0,0,0,1.968-18.316C304.85,143.8,299.814,175.855,273.83,191.094Z" transform="translate(-183.704 -82.759)" fill="#fff"/>
        </g>
      </g>
    </g>
    <text id="Technology_Stacks" data-name="Technology Stacks" transform="translate(790 2635)" fill="#fff" font-size="36" font-family="SegoeUI-Bold, Segoe UI" font-weight="700" letter-spacing="0.01em"><tspan x="0" y="0">Technology Stacks</tspan></text>
  </g>
</svg>

